<svg xmlns="http://www.w3.org/2000/svg" width="23" height="21" viewBox="0 0 23 21">
    <defs>
        <linearGradient id="a" x1="50%" x2="50%" y1="-12.33%" y2="95.403%">
            <stop offset="0%" stop-color="#F3FEFF"/>
            <stop offset="100%" stop-color="#8BB6FE"/>
        </linearGradient>
        <linearGradient id="b" x1="50%" x2="50%" y1="-31.801%" y2="133.194%">
            <stop offset="0%" stop-color="#82E1FC"/>
            <stop offset="100%" stop-color="#0051C5"/>
        </linearGradient>
    </defs>
    <g fill="none" fill-rule="evenodd">
        <path fill="url(#a)" d="M.192 11.408c-.251-.43-.251-1.211 0-1.64l2.185-3.725 2.186 3.732c.252.43.251 1.212 0 1.641l-2.185 3.719-2.186-3.727z"/>
        <path fill="url(#b)" d="M5.056 19.7l-1.831-3.122 2.607-4.44c.516-.879.517-2.204.001-3.084L3.224 4.598l1.832-3.123c.021-.035.049-.07.074-.104l5.403 9.224L5.128 19.8c-.025-.033-.052-.066-.072-.1z"/>
        <path fill="url(#a)" d="M12.36 20.52l1.985-3.379c.252-.429.94-.82 1.444-.82l3.86.004-1.98 3.376c-.251.43-.94.82-1.443.82H12.36z"/>
        <path fill="url(#b)" d="M22.533 11.408l-2.037 3.473-4.708-.003c-1.031 0-2.198.662-2.714 1.54l-2.409 4.103H6.499c-.03 0-.064-.006-.096-.01l5.4-9.193 10.768.007c-.012.028-.023.058-.038.083zM22.533 9.767c.02.035.037.076.054.115l-10.784-.007L6.408.663C6.438.66 6.47.655 6.5.655h4.204L13.09 4.73c.516.88 1.682 1.543 2.713 1.544l4.683.003 2.046 3.49z"/>
        <path fill="url(#a)" d="M12.397.655h3.83c.503 0 1.191.39 1.443.82l1.97 3.359-3.835-.003c-.504 0-1.192-.391-1.444-.821L12.397.655z"/>
    </g>
</svg>
