<svg xmlns="http://www.w3.org/2000/svg" width="22" height="22" viewBox="0 0 22 22">
    <defs>
        <linearGradient id="a" x1="50%" x2="50%" y1="-60.959%" y2="95.403%">
            <stop offset="0%" stop-color="#F3FEFF"/>
            <stop offset="100%" stop-color="#8BB6FE"/>
        </linearGradient>
        <linearGradient id="b" x1="50%" x2="50%" y1="-31.801%" y2="133.194%">
            <stop offset="0%" stop-color="#82E1FC"/>
            <stop offset="100%" stop-color="#0051C5"/>
        </linearGradient>
        <linearGradient id="c" x1="50%" x2="50%" y1="-12.33%" y2="95.403%">
            <stop offset="0%" stop-color="#FFF"/>
            <stop offset="100%" stop-color="#A3E8FC"/>
        </linearGradient>
    </defs>
    <g fill="none" fill-rule="evenodd">
        <path fill="url(#a)" d="M21 0H5a1 1 0 0 0-1 1v16a1 1 0 0 0 1 1h16a1 1 0 0 0 1-1V1a1 1 0 0 0-1-1z"/>
        <path fill="url(#b)" d="M17 4H1a1 1 0 0 0-1 1v16a1 1 0 0 0 1 1h16a1 1 0 0 0 1-1V5a1 1 0 0 0-1-1z"/>
        <g fill="url(#c)" transform="translate(3 8)">
            <path d="M1.997 8H0v2h2zM4 8h8v2H4zM1.997 4H0v2h2zM4 4h8v2H4zM1.997 0H0v2h2zM4 0h8v2H4z"/>
        </g>
    </g>
</svg>
