<svg xmlns="http://www.w3.org/2000/svg" width="22" height="22" viewBox="0 0 22 22">
    <defs>
        <linearGradient id="a" x1="50%" x2="50%" y1="-31.801%" y2="133.194%">
            <stop offset="0%" stop-color="#82E1FC"/>
            <stop offset="100%" stop-color="#0051C5"/>
        </linearGradient>
        <linearGradient id="b" x1="50%" x2="50%" y1="-12.33%" y2="95.403%">
            <stop offset="0%" stop-color="#F3FEFF"/>
            <stop offset="100%" stop-color="#8BB6FE"/>
        </linearGradient>
    </defs>
    <g fill="none" fill-rule="evenodd">
        <path fill="url(#a)" d="M4.095.627h1.4V.62h2.137c1.099 0 1.99.972 1.99 2.166v5.29c0 1.194-.891 2.167-1.99 2.167h-5.64C.893 10.243 0 9.27 0 8.076V2.788C0 1.593.895.62 1.99.62h2.105v.007zM5.495 12.31l2.137-.004c1.099 0 1.99.97 1.99 2.165v5.292c0 1.193-.891 2.164-1.99 2.164h-5.64C.893 21.927 0 20.956 0 19.761v-5.29c0-1.194.895-2.165 1.99-2.165h2.105l1.4.004zM15.78 12.31h1.4v-.004h2.136c1.099 0 1.991.97 1.991 2.165v5.292c0 1.193-.892 2.164-1.99 2.164h-5.642c-1.097 0-1.99-.971-1.99-2.166v-5.29c0-1.194.893-2.165 1.99-2.165h2.104v.004z"/>
        <path fill="url(#b)" d="M19.306 1.753l.003-.004L18.035.475c-.667-.665-1.797-.617-2.52.106L12.31 3.787c-.723.723-.77 1.853-.105 2.52l3.418 3.417c.665.665 1.796.617 2.52-.106l3.204-3.205c.725-.724.771-1.854.106-2.52l-1.295-1.294-.004.002-.848-.848z"/>
    </g>
</svg>
