<svg xmlns="http://www.w3.org/2000/svg" width="22" height="22" viewBox="0 0 22 22">
    <defs>
        <linearGradient id="a" x1="50%" x2="50%" y1="0%" y2="100%">
            <stop offset="0%" stop-color="#FEFEFE"/>
            <stop offset="100%" stop-color="#D2D3D4"/>
        </linearGradient>
        <linearGradient id="b" x1="50%" x2="50%" y1="0%" y2="100%">
            <stop offset="0%" stop-color="#A3A5A8"/>
            <stop offset="100%" stop-color="#787B80"/>
        </linearGradient>
    </defs>
    <g fill="none" fill-rule="evenodd">
        <path fill="url(#a)" d="M18.464 10.57l-3.7-6.51H7.367l-3.7 6.51 3.7 6.323h7.399z" transform="translate(0 .5)"/>
        <path fill="url(#b)" d="M5.737 1.87h8.144V0H4.627v.187L0 8.231l1.48.936zM16.164 19.344H7.988v1.87h9.29v-.187l4.46-8.044-1.486-.935zM4.009 19.119L.262 12.711l1.622-.925 3.747 6.408-1.622.925zM18.253 2.095L22 8.504l-1.622.925L16.63 3.02z" transform="translate(0 .5)"/>
    </g>
</svg>
