<svg xmlns="http://www.w3.org/2000/svg" width="23" height="23" viewBox="0 0 23 23">
    <defs>
        <linearGradient id="a" x1="50%" x2="50%" y1="0%" y2="100%">
            <stop offset="0%" stop-color="#FEFEFE"/>
            <stop offset="100%" stop-color="#D2D3D4"/>
        </linearGradient>
        <linearGradient id="b" x1="50%" x2="50%" y1="0%" y2="100%">
            <stop offset="0%" stop-color="#A3A5A8"/>
            <stop offset="100%" stop-color="#787B80"/>
        </linearGradient>
    </defs>
    <g fill="none" fill-rule="evenodd">
        <path fill="url(#a)" d="M21.883 15.92a2.672 2.672 0 0 0-1.304-1.72c-.49-.32-1.02-.32-1.386-.32-.734 0-1.386.28-1.916.76l-.04.04-2.324-1.32v-.04c.164-.48.245-.92.245-1.32 0-1.92-1.386-3.56-3.342-3.96h-.04V5.36h.04a2.72 2.72 0 0 0 1.997-2.64C13.732 1.24 12.51 0 10.96 0A2.757 2.757 0 0 0 8.19 2.76c0 1.2.774 2.24 1.997 2.64h.04V8h-.081c-1.956.36-3.342 2.04-3.342 3.96 0 .48.082.92.245 1.32v.04l-2.324 1.32-.04-.04c-.53-.44-1.264-.72-1.916-.72-.57 0-1.1.2-1.386.32-.652.32-1.1.92-1.263 1.64-.163.72-.163 1.48.204 2.08.407.88 1.345 1.4 2.404 1.4.652 0 1.142-.24 1.386-.32 1.06-.56 1.59-1.76 1.264-3v-.04l2.282-1.28.04.04a4.22 4.22 0 0 0 3.098 1.4c1.223 0 2.323-.48 3.138-1.4l.041-.04 2.282 1.28V16c-.244 1.12.245 2.28 1.264 2.96.407.28 1.06.44 1.67.44.123 0 .245 0 .327-.04.856-.12 1.508-.52 1.997-1.28.53-.88.53-1.44.367-2.16z" transform="translate(.328 .964)"/>
        <path fill="url(#b)" d="M1.505 12.92c.244-.04.407-.16.57-.28.163-.16.245-.32.204-.52v-.16c0-3.08 1.753-5.92 4.483-7.44.204-.12.286-.28.367-.44.04-.2.04-.4-.081-.56-.123-.2-.245-.32-.449-.36-.244-.08-.407-.04-.611.08C2.728 5.04.73 8.4.73 12v.32c.041.32.367.6.775.6zM15.158 4.56c2.771 1.52 4.524 4.36 4.524 7.44v.12c-.04.2 0 .36.122.48.163.2.326.32.612.32h.081c.367 0 .693-.28.734-.68v-.28c0-3.6-1.997-6.96-5.258-8.72-.204-.12-.367-.12-.611-.08-.204.04-.326.2-.49.36-.122.2-.162.4-.08.56.08.24.203.4.366.48zM15.77 19.16h-.204l-.204.08c-2.69 1.52-6.236 1.52-8.926 0l-.081-.04H6.11c-.448 0-.733.32-.733.76 0 .28.122.48.366.68 1.55.88 3.342 1.36 5.217 1.36 1.834 0 3.668-.48 5.217-1.4.367-.28.448-.48.448-.68-.081-.4-.407-.76-.856-.76z" transform="translate(.328 .964)"/>
    </g>
</svg>
