<svg xmlns="http://www.w3.org/2000/svg" width="15" height="10" viewBox="0 0 15 10">
    <g fill="#FFF" fill-rule="nonzero">
        <path d="M5.378 4.35L3.976 7.796h.7l.306-.778h1.506l.3.778h.701L6.119 4.35h-.741zm-.164 2.086l.528-1.338h.009l.514 1.338H5.214zM9.209 4.35H7.866v3.446h.665V6.575h.678c.982 0 1.347-.484 1.347-1.12 0-.612-.355-1.105-1.347-1.105zM9.13 5.997h-.6V4.932h.61c.5 0 .746.184.746.524 0 .349-.241.537-.756.541zM11.07 4.35v3.446h.668V4.35h-.668z"/>
        <path d="M13.66 4.549a3.747 3.747 0 0 0-7.125-2.22 2.808 2.808 0 0 0-4.326 2.113 2.81 2.81 0 0 0 .611 5.55h9.367v-.008A2.963 2.963 0 0 0 13.66 4.55zm-1.63 4.819H2.82a2.186 2.186 0 1 1 0-4.371h.025a2.186 2.186 0 0 1 4.042-1.421 3.12 3.12 0 1 1 6.03 1.283 2.342 2.342 0 0 1-.887 4.509z"/>
    </g>
</svg>
