<?xml version="1.0" encoding="UTF-8"?>
<svg width="81px" height="58px" viewBox="0 0 81 58" version="1.1" xmlns="http://www.w3.org/2000/svg" xmlns:xlink="http://www.w3.org/1999/xlink">
    <!-- Generator: Sketch 52.5 (67469) - http://www.bohemiancoding.com/sketch -->
    <title>上下样式_white_EN</title>
    <desc>Created with Sketch.</desc>
    <defs>
        <polygon id="path-1" points="0.276693792 0.292626087 7.96886388 0.292626087 7.96886388 8 0.276693792 8"></polygon>
        <polygon id="path-3" points="0.185247961 0.292626087 7.8771449 0.292626087 7.8771449 8 0.185247961 8"></polygon>
    </defs>
    <g id="各尺寸logo" stroke="none" stroke-width="1" fill="none" fill-rule="evenodd">
        <g id="上下样式_white_EN">
            <g id="分组">
                <path d="M55.7194866,19.6939127 C55.7084942,19.694345 55.6979328,19.6939127 55.6873714,19.694345 C54.2092094,19.7235241 52.7323406,20.2444256 51.5201528,21.2814734 C50.318742,22.3081465 49.5749192,23.672649 49.3065739,25.1160433 C49.2266092,25.6047396 49.0313314,26.0543144 48.7513471,26.439695 C48.7427256,26.4517989 48.7334574,26.4634706 48.7246204,26.4755745 C48.6772019,26.5391202 48.6276281,26.6000721 48.5756834,26.6595111 C48.5575781,26.6798284 48.5403351,26.7007942 48.5217988,26.7208954 C48.4776134,26.7686627 48.4317037,26.8142686 48.3847164,26.859226 C48.3597139,26.8832178 48.3353581,26.9082902 48.3099246,26.9314174 C48.2674635,26.9692422 48.2228471,27.004041 48.1786617,27.0394882 C48.1023611,27.1008725 48.0226119,27.1568532 47.9420006,27.2119693 C47.9182914,27.2279638 47.8952288,27.2446067 47.8710885,27.2595205 C47.8206525,27.290861 47.7680611,27.3187433 47.7159009,27.3470578 C47.6863721,27.36262 47.657921,27.3796952 47.6279612,27.394609 C47.5723523,27.422059 47.5160968,27.4469153 47.4591947,27.470907 C47.4320368,27.4825787 47.404879,27.4946826 47.3777212,27.5054897 C47.3143529,27.530346 47.2505535,27.5526086 47.1865386,27.5731421 C47.1656314,27.5794102 47.1458019,27.5863267 47.1253258,27.5921625 C47.0503184,27.6144251 46.9750955,27.6338779 46.8987949,27.6503046 C46.8914666,27.6516015 46.8841383,27.6533306 46.87681,27.6548436 C46.1491525,27.8076558 45.3654551,27.7036916 44.673577,27.2964807 C43.3413344,26.5110218 42.8132654,24.8828264 43.3618105,23.4846057 C43.3620261,23.4841735 43.3620261,23.4839573 43.3620261,23.483525 C43.3967277,23.3957715 43.4355246,23.3084503 43.4786323,23.2222097 C43.4844518,23.2109704 43.4904869,23.2001633 43.4963065,23.1889239 C43.5210934,23.140292 43.5439404,23.091444 43.5715293,23.0438928 C43.5775644,23.0337342 43.583815,23.0242239 43.5902812,23.0140653 L43.5900656,23.0140653 C44.3483296,21.742936 44.6899579,20.2115721 44.4571764,18.6320085 C44.3800137,18.1085134 44.2425002,17.6087938 44.0543353,17.1380371 C43.667875,16.1727483 42.5438425,15.7499752 41.6181052,16.2183542 C41.1592241,16.4507065 40.7206035,16.7403364 40.3123739,17.0896214 C39.1111786,18.1167267 38.3675713,19.4810131 38.0987949,20.9244074 C37.8492015,22.4570681 36.477731,23.6250978 34.8366219,23.5211337 C33.3157833,23.4247345 32.0673851,22.1825682 31.9525032,20.6585531 C31.8186539,18.8773294 33.1942197,17.3647698 34.9545214,17.3152733 C34.966376,17.3150572 34.9780151,17.3154895 34.9896542,17.3152733 L34.9896542,17.3150572 C36.4663074,17.2850135 37.9420986,16.7634636 39.1536397,15.7270642 C40.3548349,14.6999588 41.0988733,13.3354563 41.3674341,11.8916298 L41.3680807,11.8916298 C41.4648575,11.2972401 41.7323406,10.7599118 42.1175076,10.3282769 C42.1287156,10.3150922 42.1399236,10.3019076 42.1517782,10.2889391 C42.1963946,10.2403072 42.243382,10.1940529 42.2908004,10.1482309 C42.3188204,10.1218616 42.3455472,10.0939793 42.3739982,10.0686907 C42.3796022,10.0635033 42.3860684,10.0587482 42.392319,10.0533446 C43.3691388,9.19093928 44.8242383,9.00851569 46.0075438,9.70557266 C47.4831194,10.5748946 47.9764867,12.4786706 47.109807,13.9581605 C47.104203,13.9674546 47.0983835,13.9763164 47.0925639,13.9856105 C46.3334378,15.2573882 45.9903008,16.7894006 46.2235133,18.3700448 C46.3008915,18.8952691 46.4379739,19.3956372 46.6272166,19.8672583 C47.014108,20.832331 48.1392182,21.2557526 49.0649554,20.7854283 C49.5199569,20.5539405 49.9555599,20.2658236 50.3609876,19.9187001 C51.5626139,18.8915947 52.3062212,17.5268761 52.5752131,16.0832657 L52.5758597,16.0832657 C52.8260997,14.5510372 54.1973548,13.383872 55.8384638,13.4880523 C56.252513,13.5146378 56.6443617,13.6283283 57,13.8066452 L57,11.208622 C57,9.80910453 56.2555305,8.51592877 55.047007,7.8162781 L42.4533164,0.524738001 C41.2445773,-0.174912667 39.7554227,-0.174912667 38.5468992,0.524738001 L25.952993,7.8162781 C24.744685,8.51592877 24,9.80910453 24,11.208622 L24,25.7912699 C24,27.1910035 24.7444695,28.4839632 25.952993,29.1836138 L38.5468992,36.4749378 C39.7554227,37.1750207 41.2445773,37.1750207 42.4533164,36.4749378 L55.047007,29.1836138 C56.2555305,28.4839632 57,27.1910035 57,25.7912699 L57,19.3742391 C56.612462,19.5659568 56.1798766,19.6809442 55.7194866,19.6939127" id="Fill-11" fill="#FFFFFF"></path>
                <polygon id="Fill-13" fill="#FFFFFF" points="16.2193113 54.7973753 22.8839988 47.6619456 18.0350304 47.6619456 18.3382069 46 26 46 25.7825442 47.1886407 19.1345554 54.3247876 24.542749 54.3247876 24.2366038 56 16 56"></polygon>
                <polygon id="Fill-15" fill="#FFFFFF" points="26.1723967 51 29 51 28.8276033 53 26 53"></polygon>
                <path d="M32.5544987,46 L35.7984637,46 C37.8103352,46 39.2532564,46.5941198 38.9627756,48.4593044 C38.820222,49.3786303 38.1706704,50.3241305 37.2903778,50.6217282 L37.279631,50.6891359 C38.2993163,50.9455002 38.9624595,51.7027608 38.7519479,53.0537827 C38.4390253,55.0674077 36.6531535,56 34.4952514,56 L31,56 L32.5544987,46 Z M34.5625772,54.4593044 C35.8992943,54.4593044 36.7030947,53.9723915 36.8649294,52.9318752 C37.0157012,51.9591251 36.3642531,51.5536034 35.0139444,51.5536034 L33.6506763,51.5536034 L33.1986769,54.4593044 L34.5625772,54.4593044 Z M35.0202661,50.0674077 C36.2643708,50.0674077 36.8873713,49.553962 37.01096,48.7569021 C37.147192,47.8780925 36.6196486,47.5274292 35.4419215,47.5274292 L34.2762055,47.5274292 L33.8814172,50.0674077 L35.0202661,50.0674077 Z" id="Fill-17" fill="#FFFFFF"></path>
                <g transform="translate(39.000000, 48.000000)">
                    <mask id="mask-2" fill="white">
                        <use xlink:href="#path-1"></use>
                    </mask>
                    <g id="Clip-20"></g>
                    <path d="M0.314327273,5.82445217 C0.604509091,4.25158261 2.2336,3.42549565 5.71869091,3.11036522 C5.82123636,2.38932174 5.55687273,1.8394087 4.50596364,1.8394087 C3.71396364,1.8394087 2.89723636,2.14062609 2.03250909,2.53401739 L1.46014545,1.26201739 C2.56414545,0.724973913 3.86232727,0.292626087 5.20196364,0.292626087 C7.36487273,0.292626087 8.27105455,1.40601739 7.88050909,3.5301913 L7.08996364,7.8168 L5.26123636,7.8168 L5.23941818,7.03071304 L5.19432727,7.03071304 C4.34632727,7.58097391 3.41578182,8.00010435 2.44123636,8.00010435 C0.918327273,8.00010435 0.0848727273,7.06966957 0.314327273,5.82445217 M5.22814545,5.77158261 L5.50087273,4.2901913 C3.38596364,4.52601739 2.59578182,5.01088696 2.47505455,5.66688696 C2.36923636,6.24427826 2.79469091,6.49262609 3.4496,6.49262609 C4.0896,6.49262609 4.61032727,6.23036522 5.22814545,5.77158261" id="Fill-19" fill="#FFFFFF" mask="url(#mask-2)"></path>
                </g>
                <g transform="translate(48.000000, 48.000000)">
                    <mask id="mask-4" fill="white">
                        <use xlink:href="#path-3"></use>
                    </mask>
                    <g id="Clip-22"></g>
                    <path d="M0.222690909,5.82445217 C0.513236364,4.25158261 2.14232727,3.42549565 5.62741818,3.11036522 C5.72996364,2.38932174 5.4656,1.8394087 4.41469091,1.8394087 C3.62269091,1.8394087 2.8056,2.14062609 1.94123636,2.53401739 L1.36887273,1.26201739 C2.47287273,0.724973913 3.77105455,0.292626087 5.11032727,0.292626087 C7.2736,0.292626087 8.17978182,1.40601739 7.78850909,3.5301913 L6.99796364,7.8168 L5.17032727,7.8168 L5.14778182,7.03071304 L5.10269091,7.03071304 C4.25469091,7.58097391 3.32414545,8.00010435 2.34996364,8.00010435 C0.826690909,8.00010435 -0.00603636364,7.06966957 0.222690909,5.82445217 M5.13687273,5.77158261 L5.40996364,4.2901913 C3.29469091,4.52601739 2.50450909,5.01088696 2.38378182,5.66688696 C2.27796364,6.24427826 2.70305455,6.49262609 3.35832727,6.49262609 C3.99832727,6.49262609 4.51869091,6.23036522 5.13687273,5.77158261" id="Fill-21" fill="#FFFFFF" mask="url(#mask-4)"></path>
                </g>
                <path d="M57,54.5941819 L58.3303519,53.2654091 C58.9250716,53.9038834 59.7755678,54.3336788 60.630144,54.3336788 C61.6419521,54.3336788 62.2501667,53.9038834 62.3581264,53.2267137 C62.4726766,52.511194 61.9168726,52.2893864 61.1081166,51.9245439 L59.8945118,51.3779713 C58.9734024,50.9744334 58.1122357,50.1925788 58.3375701,48.7864151 C58.5902083,47.2109591 60.1772783,46 62.1491115,46 C63.2792358,46 64.338747,46.4429243 65,47.2368712 L63.8206034,48.4478303 C63.2842572,47.9402985 62.6857714,47.6542289 61.8839198,47.6542289 C61.0296575,47.6542289 60.417363,48.0311636 60.3150524,48.6696379 C60.2042682,49.3595909 60.862069,49.6069652 61.6372445,49.9320757 L62.8266839,50.4662106 C63.9326429,50.9478303 64.5891883,51.6902985 64.3660508,53.0836788 C64.1134126,54.6594804 62.5712212,56 60.3238398,56 C59.0223608,56 57.8027931,55.4924682 57,54.5941819" id="Fill-23" fill="#FFFFFF"></path>
            </g>
        </g>
    </g>
</svg>