<?xml version="1.0" encoding="UTF-8"?>
<svg width="30px" height="32px" viewBox="0 0 30 32" version="1.1" xmlns="http://www.w3.org/2000/svg" xmlns:xlink="http://www.w3.org/1999/xlink">
    <!-- Generator: Sketch 52.5 (67469) - http://www.bohemiancoding.com/sketch -->
    <title>无文字_blue</title>
    <desc>Created with Sketch.</desc>
    <g id="各尺寸logo" stroke="none" stroke-width="1" fill="none" fill-rule="evenodd">
        <g id="无文字_blue" fill="#FFFFFF">
            <path d="M27.8747004,17.0325731 C27.8650403,17.032947 27.8557591,17.0325731 27.8464779,17.032947 C26.547487,17.058183 25.2496326,17.5086924 24.1843767,18.4055987 C23.1285915,19.2935321 22.474929,20.4736424 22.2391104,21.7219834 C22.1688384,22.1446397 21.9972307,22.5334611 21.7511838,22.8667632 C21.7436073,22.8772315 21.7354626,22.8873259 21.7276967,22.8977942 C21.6860259,22.9527526 21.6424611,23.0054678 21.5968126,23.0568745 C21.580902,23.0744462 21.565749,23.0925787 21.5494595,23.1099635 C21.51063,23.1512758 21.4702851,23.1907188 21.4289932,23.2296009 C21.4070213,23.2503505 21.3856177,23.2720348 21.363267,23.2920366 C21.3259528,23.32475 21.2867444,23.3548462 21.2479148,23.3855033 C21.1808628,23.4385924 21.1107802,23.4870081 21.0399399,23.5346761 C21.0191045,23.5485092 20.9988374,23.5629031 20.9776232,23.5758015 C20.9333007,23.6029068 20.887084,23.6270212 20.8412462,23.6515095 C20.8152967,23.6649687 20.7902942,23.6797364 20.7639659,23.6926348 C20.7150975,23.7163754 20.6656608,23.7378727 20.6156559,23.7586223 C20.5917899,23.7687167 20.567924,23.779185 20.544058,23.7885316 C20.4883707,23.810029 20.4323046,23.8292831 20.3760491,23.8470418 C20.3576761,23.8524628 20.3402502,23.8584447 20.322256,23.8634919 C20.2563404,23.8827461 20.1902355,23.8995701 20.1231834,23.913777 C20.1167434,23.9148986 20.1103034,23.9163941 20.1038634,23.9177026 C19.4644068,24.0498645 18.7757029,23.9599495 18.1676888,23.6077671 C16.9969302,22.9284513 16.5328696,21.5202823 17.0149244,20.3110104 C17.0151138,20.3106365 17.0151138,20.3104496 17.0151138,20.3100757 C17.0456092,20.2341808 17.0797035,20.1586597 17.117586,20.0840733 C17.1227001,20.0743527 17.1280037,20.0650061 17.1331178,20.0552855 C17.1549002,20.0132255 17.174978,19.9709786 17.1992228,19.9298533 C17.2045263,19.9210674 17.2100193,19.9128423 17.2157016,19.9040565 L17.2155122,19.9040565 C17.8818654,18.8047014 18.1820842,17.4802785 17.9775187,16.1141695 C17.909709,15.661417 17.7888639,15.229227 17.6235067,14.8220862 C17.2838901,13.9872418 16.296104,13.6216001 15.4825773,14.0266847 C15.0793181,14.2276381 14.6938637,14.4781288 14.3351164,14.7802131 C13.2795206,15.6685204 12.6260475,16.8484438 12.3898501,18.0967847 C12.1705104,19.4223292 10.9652787,20.4325171 9.523092,20.3426021 C8.18659743,20.2592298 7.08952026,19.1849238 6.9885634,17.8668567 C6.87093824,16.3263389 8.07976879,15.0181793 9.62670063,14.9753715 C9.63711832,14.9751846 9.64734659,14.9755585 9.65757487,14.9753715 L9.65757487,14.9751846 C10.9552399,14.9492009 12.2521472,14.4981307 13.3168349,13.6017852 C14.3724307,12.7134779 15.0262826,11.5333676 15.2622906,10.2846528 L15.2628588,10.2846528 C15.347905,9.77058604 15.5829659,9.30586971 15.9214461,8.93256379 C15.9312955,8.92116086 15.941145,8.90975792 15.9515627,8.89854192 C15.990771,8.85648191 16.032063,8.81647818 16.0737337,8.7768483 C16.0983573,8.75404243 16.1218445,8.72992803 16.1468469,8.70805683 C16.1517717,8.70357043 16.157454,8.69945789 16.162947,8.69478456 C17.0213644,7.94892046 18.3000882,7.79114871 19.3399628,8.39400879 C20.6366807,9.14585475 21.0702459,10.7923638 20.3086183,12.0719226 C20.3036935,12.0799607 20.2985794,12.087625 20.2934653,12.0956631 C19.6263545,13.195579 19.3248098,14.5205627 19.5297541,15.8876063 C19.5977532,16.3418544 19.7182195,16.7746051 19.8845237,17.1824937 C20.2245191,18.0171511 21.2132523,18.3833536 22.026779,17.9765866 C22.4266288,17.776381 22.8094314,17.5271988 23.1657163,17.2269838 C24.221691,16.3386765 24.8751641,15.1583793 25.1115509,13.9098514 L25.1121191,13.9098514 C25.332027,12.5846808 26.5370693,11.5752407 27.9792561,11.6653426 C28.3431175,11.6883354 28.6874694,11.7866623 29,11.9408823 L29,9.69394336 C29,8.48354986 28.3457692,7.36512758 27.2837334,6.7600243 L16.2165507,0.453827461 C15.1543255,-0.15127582 13.8456745,-0.15127582 12.7836387,0.453827461 L1.71626661,6.7600243 C0.654420169,7.36512758 0,8.48354986 0,9.69394336 L0,22.3059632 C0,23.5165436 0.654230757,24.634779 1.71626661,25.2398822 L12.7836387,31.5458921 C13.8456745,32.1513693 15.1543255,32.1513693 16.2165507,31.5458921 L27.2837334,25.2398822 C28.3457692,24.634779 29,23.5165436 29,22.3059632 L29,16.7560987 C28.6594363,16.9219086 28.2792855,17.0213571 27.8747004,17.0325731" id="Fill-11"></path>
        </g>
    </g>
</svg>