<?xml version="1.0" encoding="UTF-8"?>
<svg width="81px" height="58px" viewBox="0 0 81 58" version="1.1" xmlns="http://www.w3.org/2000/svg" xmlns:xlink="http://www.w3.org/1999/xlink">
    <!-- Generator: Sketch 52.5 (67469) - http://www.bohemiancoding.com/sketch -->
    <title>上下样式_white_CN</title>
    <desc>Created with Sketch.</desc>
    <g id="各尺寸logo" stroke="none" stroke-width="1" fill="none" fill-rule="evenodd">
        <g id="上下样式_white_CN" fill="#FFFFFF">
            <g id="分组" transform="translate(24.000000, 0.000000)">
                <path d="M5.92328963,45.4234325 C5.54598163,46.3128483 5.08661136,47.2300778 4.5942378,48.0914723 L4.5942378,58 L3.19895638,58 L3.19895638,50.1806134 C2.75608777,50.7730038 2.27999286,51.2956523 1.82039961,51.7610129 C1.67277674,51.4791397 1.24618678,50.8014402 1,50.5048299 C2.42739274,49.1780748 3.7406119,47.1171624 4.54473285,45.0707796 L5.92328963,45.4234325 Z M16,47.2726286 L16,48.3453242 L5.59526358,48.3453242 L5.59526358,47.2726286 L10.4037106,47.2726286 C10.1738025,46.7645096 9.71420926,46.0023311 9.30367496,45.4373393 L10.6168941,45 C11.0599857,45.5649918 11.5523593,46.3271703 11.7985461,46.8350817 L10.6168941,47.2726286 L16,47.2726286 Z M6.53050575,53.3843783 L14.9329676,53.3843783 L14.9329676,57.9155211 L13.5874141,57.9155211 L13.5874141,57.4495378 L7.82722326,57.4495378 L7.82722326,57.9578643 L6.53028276,57.9578643 L6.53050575,53.3843783 Z M6.76041388,50.3641008 L14.7527874,50.3641008 L14.7527874,49.319634 L6.76041388,49.319634 L6.76041388,50.3641008 Z M6.76041388,52.354026 L14.7527874,52.354026 L14.7527874,51.3095592 L6.76041388,51.3095592 L6.76041388,52.354026 Z M7.82722326,56.3909566 L13.5874141,56.3909566 L13.5874141,54.4429596 L7.82722326,54.4429596 L7.82722326,56.3909566 Z" id="Fill-7"></path>
                <path d="M24.136248,51.2781439 C23.0879623,52.9055976 21.8029964,54.4623014 20.5511198,55.7360061 L28.245749,55.2688493 C27.6198107,54.4623014 26.9437789,53.6699036 26.351849,52.9765555 L27.7891633,52.3398072 C29.1929287,53.9102448 30.8501486,55.9341056 31.678299,57.235694 L30.1561935,58 C29.9197433,57.5755011 29.5647232,57.0661025 29.1586905,56.514254 C20.280891,57.1368523 19.2151414,57.1793022 18.4370845,57.4340015 C18.3357486,57.1368523 18.06529,56.3869043 17.8283802,55.9621974 C18.251417,55.8777138 18.6234413,55.5233405 19.147814,54.9717001 C19.6211741,54.5189013 20.9063697,52.9765555 21.9381108,51.2781439 L17,51.2781439 L17,49.9343137 L32,49.9343137 L32,51.2781439 L24.136248,51.2781439 Z M18.8601213,47.3446626 L30.2582187,47.3446626 L30.2582187,46 L18.8601213,46 L18.8601213,47.3446626 Z" id="Fill-9"></path>
                <path d="M31.7194866,19.1616448 C31.7084942,19.1620654 31.6979328,19.1616448 31.6873714,19.1620654 C30.2092094,19.1904559 28.7323406,19.697279 27.5201528,20.7062985 C26.318742,21.7052236 25.5749192,23.0328477 25.3065739,24.4372313 C25.2266092,24.9127196 25.0313314,25.3501437 24.7513471,25.7251087 C24.7427256,25.7368855 24.7334574,25.7482417 24.7246204,25.7600185 C24.6772019,25.8218467 24.6276281,25.8811513 24.5756834,25.9389838 C24.5575781,25.958752 24.5403351,25.9791511 24.5217988,25.998709 C24.4776134,26.0451853 24.4317037,26.0895586 24.3847164,26.133301 C24.3597139,26.1566443 24.3353581,26.1810391 24.3099246,26.2035412 C24.2674635,26.2403437 24.2228471,26.274202 24.1786617,26.3086912 C24.1023611,26.3684164 24.0226119,26.4228841 23.9420006,26.4765107 C23.9182914,26.4920729 23.8952288,26.508266 23.8710885,26.5227767 C23.8206525,26.5532702 23.7680611,26.5803989 23.7159009,26.6079482 C23.6863721,26.6230898 23.657921,26.6397035 23.6279612,26.6542142 C23.5723523,26.6809223 23.5160968,26.7051068 23.4591947,26.7284501 C23.4320368,26.7398063 23.404879,26.7515831 23.3777212,26.7620981 C23.3143529,26.7862826 23.2505535,26.8079435 23.1865386,26.827922 C23.1656314,26.8340207 23.1458019,26.8407503 23.1253258,26.8464284 C23.0503184,26.8680893 22.9750955,26.8870163 22.8987949,26.9029991 C22.8914666,26.9042609 22.8841383,26.9059433 22.87681,26.9074154 C22.1491525,27.0560975 21.3654551,26.9549432 20.673577,26.558738 C19.3413344,25.7945077 18.8132654,24.2103176 19.3618105,22.8498867 C19.3620261,22.8494661 19.3620261,22.8492558 19.3620261,22.8488352 C19.3967277,22.7634534 19.4355246,22.6784921 19.4786323,22.5945824 C19.4844518,22.5836468 19.4904869,22.5731318 19.4963065,22.5621962 C19.5210934,22.5148787 19.5439404,22.4673509 19.5715293,22.4210849 C19.5775644,22.4112008 19.583815,22.4019476 19.5902812,22.3920635 L19.5900656,22.3920635 C20.3483296,21.155289 20.6899579,19.6653133 20.4571764,18.1284407 C20.3800137,17.6190941 20.2425002,17.1328804 20.0543353,16.6748469 C19.667875,15.735647 18.5438425,15.3243002 17.6181052,15.7800203 C17.1592241,16.0060929 16.7206035,16.2878949 16.3123739,16.6277397 C15.1111786,17.6270855 14.3675713,18.9544993 14.0987949,20.3588828 C13.8492015,21.8501203 12.477731,22.9865817 10.8366219,22.8854274 C9.31578329,22.7916336 8.06738513,21.5830393 7.95250318,20.1002138 C7.81865386,18.3671313 9.19421965,16.8954517 10.9545214,16.847293 C10.966376,16.8470827 10.9780151,16.8475033 10.9896542,16.847293 L10.9896542,16.8470827 C12.4663074,16.817851 13.9420986,16.310397 15.1536397,15.3020084 C16.3548349,14.3026626 17.0988733,12.9750386 17.3674341,11.5702344 L17.3680807,11.5702344 C17.4648575,10.9919093 17.7323406,10.4691034 18.1175076,10.0491343 C18.1287156,10.036306 18.1399236,10.0234777 18.1517782,10.0108597 C18.1963946,9.96354215 18.243382,9.91853795 18.2908004,9.87395434 C18.3188204,9.84829774 18.3455472,9.82116903 18.3739982,9.79656393 C18.3796022,9.79151673 18.3860684,9.78689013 18.392319,9.78163263 C19.3691388,8.94253552 20.8242383,8.76504229 22.0075438,9.44325988 C23.4831194,10.2890866 23.9764867,12.1414092 23.109807,13.5809129 C23.104203,13.5899558 23.0983835,13.5985781 23.0925639,13.607621 C22.3334378,14.8450264 21.9903008,16.335633 22.2235133,17.8735571 C22.3008915,18.3845862 22.4379739,18.8714307 22.6272166,19.3303054 C23.014108,20.269295 24.1392182,20.6812728 25.0649554,20.2236599 C25.5199569,19.9984286 25.9555599,19.7180987 26.3609876,19.3803568 C27.5626139,18.3810111 28.3062212,17.0531767 28.5752131,15.6485828 L28.5758597,15.6485828 C28.8260997,14.1577659 30.1973548,13.0221458 31.8384638,13.1235104 C32.252513,13.1493773 32.6443617,13.2599951 33,13.4334926 L33,10.9056863 C33,9.5439936 32.2555305,8.28576853 31.047007,7.60502734 L18.4533164,0.510555893 C17.2445773,-0.170185298 15.7554227,-0.170185298 14.5468992,0.510555893 L1.95299304,7.60502734 C0.74468502,8.28576853 0,9.5439936 0,10.9056863 L0,25.0942086 C0,26.4561116 0.744469482,27.7141263 1.95299304,28.3948675 L14.5468992,35.4891287 C15.7554227,36.1702904 17.2445773,36.1702904 18.4533164,35.4891287 L31.047007,28.3948675 C32.2555305,27.7141263 33,26.4561116 33,25.0942086 L33,18.850611 C32.612462,19.0371472 32.1798766,19.1490268 31.7194866,19.1616448" id="Fill-11"></path>
            </g>
        </g>
    </g>
</svg>