<?xml version="1.0" encoding="UTF-8"?>
<svg width="81px" height="58px" viewBox="0 0 81 58" version="1.1" xmlns="http://www.w3.org/2000/svg" xmlns:xlink="http://www.w3.org/1999/xlink">
    <!-- Generator: Sketch 51.2 (57519) - http://www.bohemiancoding.com/sketch -->
    <title>Group 24</title>
    <desc>Created with Sketch.</desc>
    <defs>
        <polygon id="path-1" points="0.434388073 0.182985915 29.0944081 0.182985915 29.0944081 30.5568123 0.434388073 30.5568123"></polygon>
        <polygon id="path-3" points="0.3375 0.0338197183 8.68704545 0.0338197183 8.68704545 11.4366197 0.3375 11.4366197"></polygon>
        <polygon id="path-5" points="0.576736364 0.0338197183 8.9271 0.0338197183 8.9271 11.4366197 0.576736364 11.4366197"></polygon>
        <polygon id="path-7" points="0.817281818 0.147123944 9.24619091 0.147123944 9.24619091 11.4366197 0.817281818 11.4366197"></polygon>
        <polygon id="path-9" points="0.777436364 0.130622535 9.07445455 0.130622535 9.07445455 11.3246225 0.777436364 11.3246225"></polygon>
    </defs>
    <g id="Page-1" stroke="none" stroke-width="1" fill="none" fill-rule="evenodd">
        <g id="Group-24">
            <g id="Group-3" transform="translate(25.363636, 0.634079)">
                <mask id="mask-2" fill="white">
                    <use xlink:href="#path-1"></use>
                </mask>
                <g id="Clip-2"></g>
                <path d="M26.8155818,11.7396901 L14.8725818,18.4350141 C14.7940364,18.4823944 14.6958545,18.4823944 14.6181273,18.4341972 L4.63221818,13.1251549 C4.45794545,13.0181408 4.48985455,12.7567324 4.68458182,12.6946479 L14.5755818,9.56101408 C14.6893091,9.52507042 14.8120364,9.52425352 14.9274,9.55856338 L22.6739455,12.1367042 C22.9005818,12.204507 23.1394909,12.0762535 23.2074,11.8491549 L23.3906727,11.2364789 C23.4577636,11.0101972 23.3293091,10.771662 23.1026727,10.7038592 L15.9403091,8.29971831 C15.6866727,8.22374648 15.5132182,7.99174648 15.5132182,7.72788732 L15.5132182,2.28814085 C15.5132182,2.12394366 15.6735818,2.00630986 15.8306727,2.05614085 L27.2254909,5.63171831 C27.3907636,5.6831831 27.4971273,5.84411268 27.4799455,6.01647887 L26.9325818,11.5550704 C26.9244,11.6318592 26.8810364,11.7004789 26.8155818,11.7396901 Z M15.5132182,28.2108732 L15.5132182,19.9062535 C15.5132182,19.8539718 15.5402182,19.8057746 15.5844,19.7771831 L25.5678545,14.2165352 C25.7666727,14.0899155 26.0121273,14.2908732 25.9270364,14.5106197 L22.4824909,23.3813521 C22.4563091,23.4507887 22.4088545,23.5112394 22.3474909,23.5537183 L15.6424909,28.2778592 C15.5884909,28.3162535 15.5132182,28.2770423 15.5132182,28.2108732 Z M14.0159455,2.27588732 L14.0159455,7.75239437 C14.0159455,8.00971831 13.8514909,8.2368169 13.6076727,8.31850704 L3.04494545,11.8516056 C2.89849091,11.9006197 2.74303636,11.8025915 2.72503636,11.6490141 L2.0664,6.01076056 C2.04676364,5.84084507 2.15067273,5.68073239 2.31430909,5.62926761 L13.6976727,2.04307042 C13.8555818,1.99405634 14.0159455,2.11087324 14.0159455,2.27588732 Z M7.2414,23.4703944 L3.60949091,14.3864507 C3.53585455,14.2026479 3.74121818,14.0335493 3.90730909,14.1405634 L13.9275818,19.7918873 C13.9824,19.8270141 14.0159455,19.8882817 14.0159455,19.9536338 L14.0159455,28.2272113 C14.0159455,28.2941972 13.9406727,28.3325915 13.8858545,28.2941972 L7.38703636,23.6574648 C7.32158182,23.6100845 7.27085455,23.5455493 7.2414,23.4703944 Z M14.9666727,0.216478873 C14.8202182,0.170732394 14.6631273,0.171549296 14.5174909,0.218112676 L0.684490909,4.57464789 C0.521672727,4.62611268 0.417763636,4.78459155 0.436581818,4.95369014 L1.26785455,12.4128169 C1.27276364,12.4340563 1.27849091,12.4544789 1.2834,12.4749014 L6.02476364,24.4621127 C6.04685455,24.5168451 6.08449091,24.5658592 6.13276364,24.600169 L14.2671273,30.4042535 C14.5510364,30.6068451 14.9323091,30.607662 15.2178545,30.4067042 L23.6058545,24.4980563 C23.6500364,24.4670141 23.6844,24.4229014 23.7032182,24.3722535 L28.3398545,12.4757183 C28.3480364,12.4552958 28.3529455,12.4340563 28.3554,12.412 L29.0925818,4.95532394 C29.1097636,4.78295775 29.0042182,4.62284507 28.8389455,4.57138028 L14.9666727,0.216478873 Z" id="Fill-1" fill="#FFFFFF" mask="url(#mask-2)"></path>
            </g>
            <path d="M7.34817273,48.3831915 L3.22453636,55.1209944 C3.00362727,55.4812479 3.26380909,55.944431 3.68680909,55.944431 L6.85971818,55.944431 C7.15917273,55.944431 7.40135455,56.1870507 7.40135455,56.4860366 L7.40135455,57.1632479 C7.40135455,57.4622338 7.15917273,57.7048535 6.85971818,57.7048535 L0.541718182,57.7048535 C0.242263636,57.7048535 8.18181818e-05,57.4622338 8.18181818e-05,57.1632479 L8.18181818e-05,56.1159803 C8.18181818e-05,56.0155014 0.0279,55.9174732 0.0810818182,55.8316986 L4.2489,49.0971634 C4.47226364,48.7369099 4.21208182,48.2712761 3.78744545,48.2712761 L0.805172727,48.2712761 C0.505718182,48.2712761 0.263536364,48.0286563 0.263536364,47.7296704 L0.263536364,47.0524592 C0.263536364,46.7534732 0.505718182,46.5108535 0.805172727,46.5108535 L6.8859,46.5108535 C7.18535455,46.5108535 7.42753636,46.7534732 7.42753636,47.0524592 L7.42753636,48.1013606 C7.42753636,48.2002056 7.40053636,48.2982338 7.34817273,48.3831915" id="Fill-4" fill="#FFFFFF"></path>
            <path d="M10.1934818,57.1633296 L10.1934818,47.0525408 C10.1934818,46.7535549 10.4364818,46.5109352 10.7359364,46.5109352 L11.7324818,46.5109352 C12.0319364,46.5109352 12.2741182,46.7535549 12.2741182,47.0525408 L12.2741182,57.1633296 C12.2741182,57.4623155 12.0319364,57.7049352 11.7324818,57.7049352 L10.7359364,57.7049352 C10.4364818,57.7049352 10.1934818,57.4623155 10.1934818,57.1633296" id="Fill-6" fill="#FFFFFF"></path>
            <g id="Group-10" transform="translate(15.545455, 46.380558)">
                <mask id="mask-4" fill="white">
                    <use xlink:href="#path-3"></use>
                </mask>
                <g id="Clip-9"></g>
                <path d="M4.47259091,11.4369465 C3.08495455,11.4369465 2.04913636,11.200862 1.36431818,10.7295099 C0.6795,10.2573408 0.3375,9.5923831 0.3375,8.73463662 L0.3375,3.20258028 C0.3375,2.8063831 0.393954545,2.41753803 0.5085,2.03604507 C0.622227273,1.65536901 0.828409091,1.31798873 1.12786364,1.02308732 C1.42568182,0.729002817 1.84704545,0.490467606 2.39195455,0.30748169 C2.93604545,0.125312676 3.62986364,0.0338197183 4.47259091,0.0338197183 C5.89459091,0.0338197183 6.91731818,0.256833803 7.54077273,0.701228169 C8.03659091,1.05576338 8.34668182,1.51077746 8.47022727,2.06381972 C8.52668182,2.31542535 8.38677273,2.57111549 8.15031818,2.67241127 L7.09731818,3.12415775 C6.79786364,3.25241127 6.46977273,3.08331268 6.36504545,2.77534085 C6.29386364,2.56458028 6.17686364,2.38241127 6.01322727,2.2288338 C5.70559091,1.9388338 5.18359091,1.79424225 4.44640909,1.79424225 C4.02504545,1.79424225 3.68222727,1.85387606 3.41877273,1.97150986 C3.15531818,2.08996056 2.94913636,2.23618592 2.80022727,2.41345352 C2.6505,2.59072113 2.54986364,2.78596056 2.49668182,3.00080563 C2.44431818,3.2156507 2.41813636,3.41905915 2.41813636,3.61184789 L2.41813636,8.0843831 C2.41813636,8.24531268 2.44431818,8.42012958 2.49668182,8.6072 C2.54986364,8.79508732 2.6505,8.96663662 2.80022727,9.12184789 C2.94913636,9.27705915 3.15122727,9.40858028 3.40568182,9.51559437 C3.66013636,9.62260845 3.99804545,9.67652394 4.42022727,9.67652394 L4.44640909,9.67652394 C5.11322727,9.67652394 5.64013636,9.56950986 6.02631818,9.35466479 C6.4125,9.13981972 6.60559091,8.84573521 6.60559091,8.46996056 L6.60559091,6.9276507 C6.60559091,6.62866479 6.36340909,6.38686197 6.06395455,6.38686197 L5.01504545,6.38686197 C4.71477273,6.38686197 4.47259091,6.14424225 4.47259091,5.84525634 L4.47259091,5.23176338 C4.47259091,4.93277746 4.71477273,4.69097465 5.01504545,4.69097465 L8.14459091,4.69097465 C8.44404545,4.69097465 8.68704545,4.93277746 8.68704545,5.23176338 L8.68704545,8.8955662 C8.68704545,9.31381972 8.57740909,9.68142535 8.35813636,9.9967493 C8.13804545,10.313707 7.83940909,10.5792 7.46222727,10.7932282 C7.08422727,11.0080732 6.63668182,11.1690028 6.11877273,11.2760169 C5.60086364,11.383031 5.05186364,11.4369465 4.47259091,11.4369465" id="Fill-8" fill="#FFFFFF" mask="url(#mask-4)"></path>
            </g>
            <g id="Group-13" transform="translate(27.000000, 46.380558)">
                <mask id="mask-6" fill="white">
                    <use xlink:href="#path-5"></use>
                </mask>
                <g id="Clip-12"></g>
                <path d="M4.71264545,11.4369465 C3.32500909,11.4369465 2.28919091,11.200862 1.60437273,10.7295099 C0.919554545,10.2573408 0.576736364,9.5923831 0.576736364,8.73463662 L0.576736364,3.20258028 C0.576736364,2.8063831 0.634009091,2.41753803 0.748554545,2.03604507 C0.862281818,1.65536901 1.06846364,1.31798873 1.3671,1.02308732 C1.66573636,0.729002817 2.0871,0.490467606 2.63200909,0.30748169 C3.1761,0.125312676 3.86991818,0.0338197183 4.71264545,0.0338197183 C6.13464545,0.0338197183 7.15737273,0.256833803 7.78082727,0.701228169 C8.28646364,1.06229859 8.59819091,1.52629859 8.71682727,2.09404507 C8.76673636,2.33176338 8.64891818,2.5735662 8.43373636,2.68548169 L7.34391818,3.25486197 C7.04773636,3.41007324 6.70819091,3.24750986 6.59200909,2.93463662 C6.52000909,2.73939718 6.4071,2.56948169 6.25328182,2.42407324 C5.94564545,2.13407324 5.42364545,1.99029859 4.68646364,1.99029859 C4.2651,1.99029859 3.92228182,2.04911549 3.65882727,2.1667493 C3.39537273,2.2852 3.18919091,2.43224225 3.04028182,2.60869296 C2.89055455,2.78596056 2.78991818,2.9812 2.73673636,3.19604507 C2.68437273,3.41089014 2.65819091,3.61429859 2.65819091,3.80708732 L2.65819091,8.0843831 C2.65819091,8.24531268 2.68437273,8.42012958 2.73673636,8.6072 C2.78991818,8.79508732 2.89055455,8.96663662 3.04028182,9.12184789 C3.18919091,9.27705915 3.39128182,9.40858028 3.64573636,9.51559437 C3.90019091,9.62260845 4.2381,9.67652394 4.66028182,9.67652394 L4.68646364,9.67652394 C5.35328182,9.67652394 5.88019091,9.56950986 6.26637273,9.35466479 C6.65255455,9.13981972 6.84564545,8.84573521 6.84564545,8.46996056 L6.84564545,6.9276507 C6.84564545,6.62866479 6.60346364,6.38686197 6.30400909,6.38686197 L5.25428182,6.38686197 C4.95482727,6.38686197 4.71264545,6.14424225 4.71264545,5.84525634 L4.71264545,5.23176338 C4.71264545,4.93277746 4.95482727,4.69097465 5.25428182,4.69097465 L8.38464545,4.69097465 C8.6841,4.69097465 8.9271,4.93277746 8.9271,5.23176338 L8.9271,8.8955662 C8.9271,9.31381972 8.81746364,9.68142535 8.59819091,9.9967493 C8.3781,10.313707 8.07946364,10.5792 7.70228182,10.7932282 C7.32428182,11.0080732 6.87673636,11.1690028 6.35882727,11.2760169 C5.8401,11.383031 5.29191818,11.4369465 4.71264545,11.4369465" id="Fill-11" fill="#FFFFFF" mask="url(#mask-6)"></path>
            </g>
            <g id="Group-16" transform="translate(38.454545, 46.380558)">
                <mask id="mask-8" fill="white">
                    <use xlink:href="#path-7"></use>
                </mask>
                <g id="Clip-15"></g>
                <path d="M8.70373636,0.147123944 C9.00319091,0.147123944 9.24619091,0.388926761 9.24619091,0.687912676 L9.24619091,8.31695493 C9.24619091,9.31439155 8.92955455,10.0830958 8.29791818,10.6247014 C7.66546364,11.1654901 6.57646364,11.4367014 5.03173636,11.4367014 C3.52137273,11.4367014 2.44137273,11.1850958 1.79173636,10.6810676 C1.1421,10.1770394 0.817281818,9.51208169 0.817281818,8.68619437 L0.817281818,0.687912676 C0.817281818,0.388926761 1.06028182,0.147123944 1.35891818,0.147123944 L2.35628182,0.147123944 C2.65573636,0.147123944 2.89791818,0.388926761 2.89791818,0.687912676 L2.89791818,8.10292676 C2.89791818,8.26385634 2.92491818,8.43540563 2.97728182,8.61675775 C3.02964545,8.79892676 3.13519091,8.97047606 3.2931,9.13058873 C3.45182727,9.29070141 3.66619091,9.42222254 3.93864545,9.52433521 C4.21028182,9.62644789 4.56619091,9.67627887 5.00555455,9.67627887 C5.4441,9.67627887 5.8041,9.62318028 6.08555455,9.5161662 C6.36619091,9.40915211 6.58546364,9.27272958 6.74337273,9.10689859 C6.9021,8.94106761 7.01173636,8.75072958 7.0731,8.53670141 C7.13446364,8.32267324 7.16555455,8.10292676 7.16555455,7.87827887 L7.16555455,0.687912676 C7.16555455,0.388926761 7.40773636,0.147123944 7.70719091,0.147123944 L8.70373636,0.147123944 Z" id="Fill-14" fill="#FFFFFF" mask="url(#mask-8)"></path>
            </g>
            <path d="M57.3671455,49.2663437 C57.2967818,49.0196394 57.1609636,48.8072451 56.9588727,48.6307944 C56.7567818,48.4543437 56.4892364,48.3171042 56.1562364,48.2207099 C55.8216,48.1243155 55.3920545,48.0761183 54.8643273,48.0761183 L53.8268727,48.0761183 C53.5274182,48.0761183 53.2844182,48.318738 53.2844182,48.616907 L53.2844182,50.6934704 C53.2844182,50.9924563 53.5274182,51.2342592 53.8268727,51.2342592 L55.0492364,51.2342592 C55.5237818,51.2342592 55.9181455,51.1893296 56.2347818,51.0978366 C56.5506,51.0071606 56.8009636,50.8756394 56.9850545,50.7040901 C57.1699636,50.5325408 57.2967818,50.3291324 57.3671455,50.0930479 C57.4375091,49.8577803 57.4375091,49.5130479 57.3671455,49.2663437 M57.6952364,57.416569 L55.4051455,53.0878085 C55.3102364,52.9105408 55.1261455,52.7994423 54.9256909,52.7994423 L53.8268727,52.7994423 C53.5274182,52.7994423 53.2844182,53.042062 53.2844182,53.340231 L53.2844182,57.1633296 C53.2844182,57.4623155 53.0422364,57.7049352 52.7427818,57.7049352 L51.7462364,57.7049352 C51.4467818,57.7049352 51.2037818,57.4623155 51.2037818,57.1633296 L51.2037818,47.0525408 C51.2037818,46.7535549 51.4467818,46.5109352 51.7462364,46.5109352 L55.2210545,46.5109352 C56.7085091,46.5109352 57.8024182,46.7739775 58.5036,47.2992451 C59.2031455,47.8245127 59.5533273,48.6234423 59.5533273,49.6952169 C59.5533273,50.3381183 59.3954182,50.9074986 59.0820545,51.4000901 C58.8382364,51.7815831 58.4062364,52.0960901 57.7852364,52.3436113 C57.4808727,52.4645127 57.3409636,52.8174141 57.4964182,53.1049634 L59.5451455,56.9076394 C59.7390545,57.267893 59.4780545,57.7049352 59.0673273,57.7049352 L58.1746909,57.7049352 C57.9742364,57.7049352 57.7901455,57.5930197 57.6952364,57.416569" id="Fill-17" fill="#FFFFFF"></path>
            <path d="M66.6915545,48.8108394 L65.3955545,53.0783324 C65.3423727,53.2654028 65.4822818,53.4516563 65.6770091,53.4516563 L67.8067364,53.4516563 C68.0096455,53.4516563 68.1511909,53.2515155 68.0824636,53.0603606 L66.6915545,48.8108394 Z M69.4643727,57.3368394 L68.8703727,55.5796845 C68.7959182,55.359938 68.5889182,55.2120789 68.3565545,55.2120789 L65.0560091,55.2120789 C64.8220091,55.2120789 64.6141909,55.3623887 64.5405545,55.5845859 L63.9686455,57.331938 C63.8958273,57.5541352 63.6880091,57.705262 63.4531909,57.705262 L62.6071909,57.705262 C62.2341,57.705262 61.9722818,57.3376563 62.0950091,56.9855718 L65.6172818,46.8747831 C65.6917364,46.6566704 65.8971,46.511262 66.1286455,46.511262 L67.3084636,46.511262 C67.5383727,46.511262 67.7429182,46.6558535 67.8198273,46.8723324 L71.3887364,56.983938 C71.5131,57.3360225 71.2512818,57.705262 70.8773727,57.705262 L69.9781909,57.705262 C69.7450091,57.705262 69.5380091,57.5565859 69.4643727,57.3368394 Z" id="Fill-19" fill="#FFFFFF"></path>
            <g id="Group-23" transform="translate(71.181818, 46.380558)">
                <mask id="mask-10" fill="white">
                    <use xlink:href="#path-9"></use>
                </mask>
                <g id="Clip-22"></g>
                <path d="M5.96634545,2.4318338 L5.96634545,10.7830169 C5.96634545,11.0820028 5.72334545,11.3246225 5.42470909,11.3246225 L4.42734545,11.3246225 C4.12789091,11.3246225 3.88570909,11.0820028 3.88570909,10.7830169 L3.88570909,2.4318338 C3.88570909,2.13366479 3.64270909,1.89104507 3.34325455,1.89104507 L1.31907273,1.89104507 C1.01961818,1.89104507 0.777436364,1.64842535 0.777436364,1.34943944 L0.777436364,0.672228169 C0.777436364,0.372425352 1.01961818,0.130622535 1.31907273,0.130622535 L8.53298182,0.130622535 C8.83161818,0.130622535 9.07461818,0.372425352 9.07461818,0.672228169 L9.07461818,1.34943944 C9.07461818,1.64842535 8.83161818,1.89104507 8.53298182,1.89104507 L6.50798182,1.89104507 C6.20934545,1.89104507 5.96634545,2.13366479 5.96634545,2.4318338" id="Fill-21" fill="#FFFFFF" mask="url(#mask-10)"></path>
            </g>
        </g>
    </g>
</svg>