<?xml version="1.0" encoding="UTF-8"?>
<svg width="30px" height="32px" viewBox="0 0 30 32" version="1.1" xmlns="http://www.w3.org/2000/svg" xmlns:xlink="http://www.w3.org/1999/xlink">
    <!-- Generator: Sketch 49.3 (51167) - http://www.bohemiancoding.com/sketch -->
    <title>Group 3</title>
    <desc>Created with Sketch.</desc>
    <defs>
        <polygon id="path-1" points="0.365751027 0.665 29.5565148 0.665 29.5565148 31.6501275 0.365751027 31.6501275"></polygon>
    </defs>
    <g id="Page-1" stroke="none" stroke-width="1" fill="none" fill-rule="evenodd">
        <g id="Group-3">
            <mask id="mask-2" fill="white">
                <use xlink:href="#path-1"></use>
            </mask>
            <g id="Clip-2"></g>
            <path d="M27.2355,12.4545 L15.0705,19.2845 C14.9913333,19.3328333 14.8913333,19.3328333 14.8121667,19.2836667 L4.64133333,13.8678333 C4.46383333,13.7586667 4.49633333,13.492 4.69466667,13.4286667 L14.7688333,10.232 C14.8846667,10.1953333 15.0096667,10.1945 15.1263333,10.2295 L23.0171667,12.8595 C23.248,12.9286667 23.4913333,12.797 23.5605,12.5661667 L23.7471667,11.9411667 C23.8155,11.7103333 23.6846667,11.4661667 23.453,11.3978333 L16.1588333,8.94533333 C15.9005,8.86783333 15.7238333,8.63116667 15.7238333,8.362 L15.7238333,2.81283333 C15.7238333,2.64533333 15.8871667,2.52533333 16.0471667,2.57616667 L27.6521667,6.22283333 C27.8213333,6.27616667 27.9296667,6.44033333 27.9121667,6.61616667 L27.3546667,12.2661667 C27.3463333,12.3445 27.3021667,12.4136667 27.2355,12.4545 Z M15.7238333,29.257 L15.7238333,20.7853333 C15.7238333,20.732 15.7513333,20.6828333 15.7955,20.6536667 L25.9646667,14.9811667 C26.1671667,14.852 26.4171667,15.057 26.3305,15.2811667 L22.8221667,24.3303333 C22.7946667,24.4011667 22.7471667,24.4628333 22.6846667,24.5061667 L15.8555,29.3253333 C15.8005,29.3645 15.7238333,29.3245 15.7238333,29.257 Z M14.198,2.80033333 L14.198,8.387 C14.198,8.64866667 14.0313333,8.88116667 13.783,8.9645 L3.02466667,12.5686667 C2.8755,12.6186667 2.71716667,12.5186667 2.69883333,12.3611667 L2.028,6.61033333 C2.008,6.437 2.11383333,6.27366667 2.27966667,6.22116667 L13.8746667,2.56283333 C14.0355,2.51283333 14.198,2.632 14.198,2.80033333 Z M7.298,24.4211667 L3.59883333,15.1545 C3.52466667,14.967 3.73383333,14.7945 3.903,14.9036667 L14.1088333,20.6686667 C14.1646667,20.7045 14.198,20.767 14.198,20.8336667 L14.198,29.2736667 C14.198,29.342 14.1213333,29.3811667 14.0663333,29.342 L7.44716667,24.6111667 C7.3805,24.5636667 7.32883333,24.4978333 7.298,24.4211667 Z M15.1671667,0.6995 C15.0171667,0.652833333 14.858,0.653666667 14.7088333,0.700333333 L0.619666667,5.14533333 C0.453833333,5.197 0.348833333,5.3595 0.368,5.532 L1.21466667,13.1411667 C1.21966667,13.162 1.2255,13.1836667 1.2305,13.2045 L6.05966667,25.432 C6.08216667,25.4886667 6.1205,25.5378333 6.16966667,25.5736667 L14.4546667,31.4945 C14.7438333,31.7011667 15.1321667,31.702 15.4221667,31.497 L23.9663333,25.4686667 C24.0113333,25.437 24.0455,25.3928333 24.0655,25.3411667 L28.788,13.2053333 C28.7963333,13.1845 28.8013333,13.1628333 28.8038333,13.1395 L29.5546667,5.53366667 C29.5721667,5.35783333 29.4638333,5.1945 29.2955,5.14116667 L15.1671667,0.6995 Z" id="Fill-1" fill="#FFFFFF" mask="url(#mask-2)"></path>
        </g>
    </g>
</svg>