<?xml version="1.0" encoding="UTF-8"?>
<svg width="114px" height="22px" viewBox="0 0 114 22" version="1.1" xmlns="http://www.w3.org/2000/svg" xmlns:xlink="http://www.w3.org/1999/xlink">
    <!-- Generator: Sketch 51.2 (57519) - http://www.bohemiancoding.com/sketch -->
    <title>Group 20</title>
    <desc>Created with Sketch.</desc>
    <defs>
        <polygon id="path-1" points="0 0 20.844142 0 20.844142 21.9999656 0 21.9999656"></polygon>
    </defs>
    <g id="Page-1" stroke="none" stroke-width="1" fill="none" fill-rule="evenodd">
        <g id="Group-20">
            <path d="M37.3641375,7.1091322 L33.0475125,14.1327254 C32.8165125,14.5089627 33.0887625,14.9910983 33.5316375,14.9910983 L36.8526375,14.9910983 C37.1657625,14.9910983 37.4196375,15.243539 37.4196375,15.5552678 L37.4196375,16.261878 C37.4196375,16.5736068 37.1657625,16.8260475 36.8526375,16.8260475 L30.2395125,16.8260475 C29.9263875,16.8260475 29.6721375,16.5736068 29.6721375,16.261878 L29.6721375,15.1700814 C29.6721375,15.0653017 29.7013875,14.9627593 29.7568875,14.8732678 L34.1200125,7.85303051 C34.3536375,7.47679322 34.0817625,6.99242034 33.6373875,6.99242034 L30.5155125,6.99242034 C30.2020125,6.99242034 29.9481375,6.73960678 29.9481375,6.42825085 L29.9481375,5.7212678 C29.9481375,5.40991186 30.2020125,5.15747119 30.5155125,5.15747119 L36.8800125,5.15747119 C37.1935125,5.15747119 37.4473875,5.40991186 37.4473875,5.7212678 L37.4473875,6.81492881 C37.4473875,6.91858983 37.4188875,7.02075932 37.3641375,7.1091322" id="Fill-1" fill="#FFFFFF"></path>
            <path d="M40.34235,16.2618407 L40.34235,5.72123051 C40.34235,5.40987458 40.5966,5.1574339 40.909725,5.1574339 L41.952975,5.1574339 C42.266475,5.1574339 42.520725,5.40987458 42.520725,5.72123051 L42.520725,16.2618407 C42.520725,16.5735695 42.266475,16.8260102 41.952975,16.8260102 L40.909725,16.8260102 C40.5966,16.8260102 40.34235,16.5735695 40.34235,16.2618407" id="Fill-3" fill="#FFFFFF"></path>
            <path d="M50.626125,16.9435051 C49.17375,16.9435051 48.089625,16.6977763 47.372625,16.2055729 C46.656,15.7141153 46.2975,15.0213017 46.2975,14.1267593 L46.2975,8.35940339 C46.2975,7.94587797 46.35675,7.54092881 46.47675,7.14418305 C46.596,6.74743729 46.812,6.39543729 47.12475,6.08781017 C47.437125,5.78055593 47.878125,5.53184407 48.448125,5.34167458 C49.017375,5.15187797 49.74375,5.05679322 50.626125,5.05679322 C52.11525,5.05679322 53.1855,5.28872542 53.838375,5.75221695 C54.357375,6.12174237 54.681375,6.59530169 54.811125,7.1732678 C54.869625,7.43465763 54.72375,7.70201356 54.475875,7.80753898 L53.374125,8.27811525 C53.060625,8.41160678 52.71675,8.23560678 52.60725,7.91418305 C52.53225,7.69418305 52.409625,7.50438644 52.239,7.34442034 C51.91725,7.04238644 51.3705,6.89174237 50.59875,6.89174237 C50.157375,6.89174237 49.798875,6.9532678 49.523625,7.07594576 C49.247625,7.19899661 49.031625,7.35262373 48.875625,7.53682712 C48.71925,7.72177627 48.6135,7.92536949 48.558375,8.14909831 C48.50325,8.37282712 48.475875,8.58499661 48.475875,8.78597966 L48.475875,13.448861 C48.475875,13.6162847 48.50325,13.797878 48.558375,13.9936407 C48.6135,14.1890305 48.71925,14.3683864 48.875625,14.5298441 C49.031625,14.6924203 49.243125,14.8292678 49.509375,14.9407593 C49.775625,15.0529966 50.13,15.1085559 50.571375,15.1085559 L50.59875,15.1085559 C51.297,15.1085559 51.84825,14.9966915 52.252875,14.7733356 C52.657125,14.5496068 52.859625,14.2423525 52.859625,13.8512 L52.859625,12.2433356 C52.859625,11.9319797 52.605375,11.6791661 52.29225,11.6791661 L51.1935,11.6791661 C50.880375,11.6791661 50.626125,11.4263525 50.626125,11.1149966 L50.626125,10.4751322 C50.626125,10.1637763 50.880375,9.91133559 51.1935,9.91133559 L54.47025,9.91133559 C54.78375,9.91133559 55.037625,10.1637763 55.037625,10.4751322 L55.037625,14.2945559 C55.037625,14.7300814 54.922875,15.1134034 54.693,15.4430305 C54.46275,15.7726576 54.150375,16.0497085 53.7555,16.2726915 C53.36025,16.4967932 52.8915,16.6642169 52.349625,16.7757085 C51.807,16.8875729 51.232875,16.9435051 50.626125,16.9435051" id="Fill-5" fill="#FFFFFF"></path>
            <path d="M62.8674375,16.9435051 C61.4154375,16.9435051 60.3309375,16.6977763 59.6139375,16.2055729 C58.8973125,15.7141153 58.5388125,15.0213017 58.5388125,14.1267593 L58.5388125,8.35940339 C58.5388125,7.94587797 58.5980625,7.54092881 58.7180625,7.14418305 C58.8373125,6.74743729 59.0533125,6.39543729 59.3660625,6.08781017 C59.6784375,5.78055593 60.1194375,5.53184407 60.6894375,5.34167458 C61.2590625,5.15187797 61.9850625,5.05679322 62.8674375,5.05679322 C64.3565625,5.05679322 65.4268125,5.28872542 66.0793125,5.75221695 C66.6084375,6.12845424 66.9346875,6.61245424 67.0591875,7.20496271 C67.1109375,7.45143729 66.9875625,7.70425085 66.7633125,7.82096271 L65.6218125,8.41458983 C65.3124375,8.57604746 64.9561875,8.40601356 64.8350625,8.08011525 C64.7593125,7.87652203 64.6411875,7.69865763 64.4806875,7.54801356 C64.1585625,7.24597966 63.6118125,7.09533559 62.8400625,7.09533559 C62.3986875,7.09533559 62.0405625,7.15686102 61.7649375,7.27953898 C61.4889375,7.40258983 61.2725625,7.55621695 61.1169375,7.74079322 C60.9605625,7.92499661 60.8548125,8.12896271 60.7996875,8.35269153 C60.7445625,8.57642034 60.7171875,8.78858983 60.7171875,8.98994576 L60.7171875,13.448861 C60.7171875,13.6162847 60.7445625,13.797878 60.7996875,13.9936407 C60.8548125,14.1890305 60.9605625,14.3683864 61.1169375,14.5298441 C61.2725625,14.6924203 61.4844375,14.8292678 61.7506875,14.9407593 C62.0169375,15.0529966 62.3713125,15.1085559 62.8126875,15.1085559 L62.8400625,15.1085559 C63.5383125,15.1085559 64.0899375,14.9966915 64.4941875,14.7733356 C64.8984375,14.5496068 65.1009375,14.2423525 65.1009375,13.8512 L65.1009375,12.2433356 C65.1009375,11.9319797 64.8466875,11.6791661 64.5331875,11.6791661 L63.4351875,11.6791661 C63.1216875,11.6791661 62.8674375,11.4263525 62.8674375,11.1149966 L62.8674375,10.4751322 C62.8674375,10.1637763 63.1216875,9.91133559 63.4351875,9.91133559 L66.7115625,9.91133559 C67.0250625,9.91133559 67.2793125,10.1637763 67.2793125,10.4751322 L67.2793125,14.2945559 C67.2793125,14.7300814 67.1638125,15.1134034 66.9343125,15.4430305 C66.7040625,15.7726576 66.3916875,16.0497085 65.9971875,16.2726915 C65.6015625,16.4967932 65.1328125,16.6642169 64.5909375,16.7757085 C64.0483125,16.8875729 63.4741875,16.9435051 62.8674375,16.9435051" id="Fill-7" fill="#FFFFFF"></path>
            <path d="M79.0356375,5.17410169 C79.3491375,5.17410169 79.6033875,5.42691525 79.6033875,5.73827119 L79.6033875,13.6910847 C79.6033875,14.7303051 79.2722625,15.5323729 78.6103875,16.0969153 C77.9488875,16.6614576 76.8092625,16.9433559 75.1915125,16.9433559 C73.6105125,16.9433559 72.4802625,16.6808475 71.8003875,16.1554576 C71.1201375,15.6300678 70.7800125,14.9376271 70.7800125,14.0766441 L70.7800125,5.73827119 C70.7800125,5.42691525 71.0342625,5.17410169 71.3477625,5.17410169 L72.3910125,5.17410169 C72.7041375,5.17410169 72.9583875,5.42691525 72.9583875,5.73827119 L72.9583875,13.4681017 C72.9583875,13.6355254 72.9857625,13.8141356 73.0412625,14.0039322 C73.0963875,14.1933559 73.2066375,14.372339 73.3716375,14.5393898 C73.5373875,14.7068136 73.7620125,14.843661 74.0473875,14.9495593 C74.3323875,15.0554576 74.7043875,15.1087797 75.1641375,15.1087797 C75.6231375,15.1087797 76.0000125,15.0528475 76.2943875,14.9409831 C76.5883875,14.8298644 76.8186375,14.6874237 76.9836375,14.5144068 C77.1493875,14.3413898 77.2637625,14.1433898 77.3282625,13.9200339 C77.3927625,13.696678 77.4250125,13.4681017 77.4250125,13.2335593 L77.4250125,5.73827119 C77.4250125,5.42691525 77.6788875,5.17410169 77.9923875,5.17410169 L79.0356375,5.17410169 Z" id="Fill-9" fill="#FFFFFF"></path>
            <path d="M89.721675,8.02932881 C89.648175,7.77241356 89.505675,7.55129492 89.294175,7.36709153 C89.08305,7.18251525 88.80255,7.04007458 88.453425,6.93939661 C88.1043,6.83909153 87.653925,6.78875254 87.102675,6.78875254 L86.01555,6.78875254 C85.70205,6.78875254 85.448175,7.04119322 85.448175,7.35292203 L85.448175,9.51712542 C85.448175,9.82885424 85.70205,10.0812949 86.01555,10.0812949 L87.295425,10.0812949 C87.791925,10.0812949 88.20555,10.033939 88.5363,9.93885424 C88.86705,9.84376949 89.129175,9.70692203 89.3223,9.52831186 C89.51505,9.34932881 89.648175,9.13715932 89.721675,8.89105763 C89.7948,8.64532881 89.7948,8.28624407 89.721675,8.02932881 M90.06555,16.5254305 L87.66705,12.0131932 C87.569175,11.8282441 87.37605,11.7126508 87.165675,11.7126508 L86.01555,11.7126508 C85.70205,11.7126508 85.448175,11.9654644 85.448175,12.2768203 L85.448175,16.2618034 C85.448175,16.5735322 85.1943,16.8259729 84.8808,16.8259729 L83.83755,16.8259729 C83.52405,16.8259729 83.270175,16.5735322 83.270175,16.2618034 L83.270175,5.7215661 C83.270175,5.41021017 83.52405,5.15739661 83.83755,5.15739661 L87.475425,5.15739661 C89.032425,5.15739661 90.177675,5.43109153 90.9108,5.97885424 C91.64355,6.52661695 92.0103,7.35926102 92.0103,8.47678644 C92.0103,9.1476 91.8453,9.74010847 91.51605,10.253939 C91.26105,10.6518034 90.808425,10.9795661 90.1593,11.2368542 C89.8398,11.3628881 89.6943,11.7305492 89.856675,12.0310915 L92.0013,15.9944475 C92.204925,16.3703119 91.931175,16.8259729 91.5018,16.8259729 L90.5673,16.8259729 C90.356925,16.8259729 90.164175,16.7103797 90.06555,16.5254305" id="Fill-11" fill="#FFFFFF"></path>
            <path d="M99.48195,7.55483729 L98.125575,12.0033119 C98.06895,12.1979559 98.216325,12.3926 98.420325,12.3926 L100.6497,12.3926 C100.86195,12.3926 101.010075,12.1834136 100.93845,11.9850407 L99.48195,7.55483729 Z M102.384075,16.4424644 L101.7627,14.6112441 C101.6847,14.381922 101.4687,14.2275492 101.22495,14.2275492 L97.77045,14.2275492 C97.524825,14.2275492 97.30695,14.3841593 97.230825,14.6160915 L96.631575,16.4372441 C96.55545,16.6691763 96.33795,16.8257864 96.0927,16.8257864 L95.206575,16.8257864 C94.8162,16.8257864 94.54245,16.4432102 94.6707,16.0766678 L98.356575,5.53605763 C98.436075,5.30934576 98.65095,5.15721017 98.892825,5.15721017 L100.128075,5.15721017 C100.36845,5.15721017 100.583325,5.30822712 100.662825,5.53382034 L104.398575,16.0744305 C104.5287,16.4413458 104.255325,16.8257864 103.863825,16.8257864 L102.921825,16.8257864 C102.67845,16.8257864 102.462075,16.6714136 102.384075,16.4424644 Z" id="Fill-13" fill="#FFFFFF"></path>
            <path d="M110.427262,7.55629153 L110.427262,16.2619525 C110.427262,16.5736814 110.173387,16.8257492 109.859888,16.8257492 L108.816637,16.8257492 C108.503138,16.8257492 108.249263,16.5736814 108.249263,16.2619525 L108.249263,7.55629153 C108.249263,7.24493559 107.995387,6.99212203 107.681887,6.99212203 L105.563137,6.99212203 C105.249637,6.99212203 104.996138,6.73968136 104.996138,6.42832542 L104.996138,5.72134237 C104.996138,5.40998644 105.249637,5.15717288 105.563137,5.15717288 L113.113388,5.15717288 C113.426888,5.15717288 113.680763,5.40998644 113.680763,5.72134237 L113.680763,6.42832542 C113.680763,6.73968136 113.426888,6.99212203 113.113388,6.99212203 L110.995013,6.99212203 C110.681512,6.99212203 110.427262,7.24493559 110.427262,7.55629153" id="Fill-15" fill="#FFFFFF"></path>
            <g id="Group-19" transform="translate(0.000000, 0.000112)">
                <mask id="mask-2" fill="white">
                    <use xlink:href="#path-1"></use>
                </mask>
                <g id="Clip-18"></g>
                <path d="M19.1865375,8.37077627 L10.5004125,13.2200983 C10.4437875,13.2544034 10.3725375,13.2544034 10.3159125,13.2197254 L3.0532875,9.37382712 C2.9265375,9.29664068 2.9497875,9.10758983 3.0911625,9.06247119 L10.2844125,6.79311525 C10.3676625,6.76664068 10.4569125,6.76589492 10.5401625,6.79087797 L16.1741625,8.6582678 C16.3391625,8.70711525 16.5131625,8.61389492 16.5622875,8.44982712 L16.6957875,8.00609831 C16.7449125,7.84203051 16.6511625,7.66938644 16.4861625,7.6201661 L11.2770375,5.87881017 C11.0929125,5.82436949 10.9669125,5.65582712 10.9669125,5.46491186 L10.9669125,1.52504746 C10.9669125,1.40572542 11.0831625,1.32070847 11.1975375,1.3561322 L19.4846625,3.94653898 C19.6050375,3.98382712 19.6819125,4.10053898 19.6695375,4.22508136 L19.2712875,8.23728475 C19.2656625,8.29247119 19.2341625,8.34206441 19.1865375,8.37077627 Z M10.9669125,20.3003695 L10.9669125,14.2854203 C10.9669125,14.2481322 10.9860375,14.2127085 11.0182875,14.1922 L18.2790375,10.1650814 C18.4237875,10.0729797 18.6022875,10.2184034 18.5400375,10.3776237 L16.0354125,16.8023695 C16.0155375,16.8530814 15.9817875,16.8967085 15.9371625,16.9276576 L11.0606625,20.3492169 C11.0212875,20.3768102 10.9669125,20.3484712 10.9669125,20.3003695 Z M9.8775375,1.51609831 L9.8775375,5.48281017 C9.8775375,5.66850508 9.7579125,5.83369153 9.5809125,5.89260678 L1.8990375,8.45169153 C1.7917875,8.48711525 1.6789125,8.41589492 1.6657875,8.30440339 L1.1872875,4.22097966 C1.1726625,4.09792881 1.2484125,3.98158983 1.3669125,3.94467458 L9.6465375,1.34755593 C9.7609125,1.31138644 9.8775375,1.39677627 9.8775375,1.51609831 Z M4.9504125,16.8676237 L2.3089125,10.2873864 C2.2556625,10.1546407 2.4052875,10.0319627 2.5260375,10.109522 L9.8134125,14.2030136 C9.8535375,14.2287424 9.8775375,14.2727424 9.8775375,14.3197254 L9.8775375,20.3126746 C9.8775375,20.3607763 9.8227875,20.3887424 9.7830375,20.3607763 L5.0569125,17.0022339 C5.0089125,16.9686746 4.9721625,16.9216915 4.9504125,16.8676237 Z M10.5690375,0.0242 C10.4625375,-0.00861355932 10.3485375,-0.00824067797 10.2420375,0.0249457627 L0.1815375,3.18064068 C0.0634125,3.21792881 -0.0119625,3.33277627 0.0015375,3.45545424 L0.6064125,8.8581322 C0.6101625,8.87342034 0.6139125,8.88833559 0.6176625,8.90325085 L4.0657875,17.5850475 C4.0815375,17.6253186 4.1089125,17.6599966 4.1445375,17.6849797 L10.0601625,21.8892169 C10.2667875,22.0361322 10.5442875,22.036878 10.7516625,21.8914542 L16.8521625,17.6111492 C16.8844125,17.5887763 16.9091625,17.5570814 16.9234125,17.520539 L20.2954125,8.90399661 C20.3010375,8.88908136 20.3047875,8.87342034 20.3062875,8.85738644 L20.8429125,3.4562 C20.8549125,3.33165763 20.7780375,3.21569153 20.6576625,3.17803051 L10.5690375,0.0242 Z" id="Fill-17" fill="#FFFFFF" mask="url(#mask-2)"></path>
            </g>
        </g>
    </g>
</svg>