<?xml version="1.0" encoding="UTF-8"?>
<svg width="114px" height="23px" viewBox="0 0 114 23" version="1.1" xmlns="http://www.w3.org/2000/svg" xmlns:xlink="http://www.w3.org/1999/xlink">
    <!-- Generator: Sketch 49.3 (51167) - http://www.bohemiancoding.com/sketch -->
    <title>Page 1</title>
    <desc>Created with Sketch.</desc>
    <defs>
        <polygon id="path-1" points="0 1.79599553e-05 20.8440295 1.79599553e-05 20.8440295 22.1249279 0 22.1249279"></polygon>
    </defs>
    <g id="Symbols" stroke="none" stroke-width="1" fill="none" fill-rule="evenodd">
        <g id="-top-nav-" transform="translate(-360.000000, -29.000000)">
            <g id="Page-1">
                <g transform="translate(360.000000, 29.000000)">
                    <path d="M36.0607125,7.05435 L34.9135875,7.05435 C34.8314625,7.05435 34.7545875,7.09335 34.7133375,7.155975 L33.6955875,8.62335 L32.0958375,8.63235 C32.0527125,8.631975 32.0084625,8.612475 31.9852125,8.577225 C31.9619625,8.5416 31.9627125,8.499975 31.9870875,8.4651 L33.7702125,4.451475 C33.8155875,4.3866 33.8167125,4.308225 33.7735875,4.24185 C33.7300875,4.17585 33.6524625,4.1406 33.5658375,4.139475 L32.5469625,4.116975 C32.4685875,4.11885 32.3969625,4.155225 32.3557125,4.214475 L30.1743375,9.4851 C30.1285875,9.549975 30.1278375,9.63135 30.1717125,9.696975 C30.2137125,9.759975 30.2894625,9.79785 30.3715875,9.79785 C30.3757125,9.79785 30.3794625,9.797475 30.3835875,9.797475 L32.9860875,9.747975 L30.5335875,13.206975 C30.4885875,13.2756 30.4912125,13.35885 30.5410875,13.42485 C30.5849625,13.482225 30.6565875,13.5156 30.7327125,13.5156 C30.7439625,13.5156 30.7548375,13.515225 30.7657125,13.513725 L35.7899625,12.258975 C35.9054625,12.244725 35.9917125,12.15585 35.9902125,12.052725 L35.9759625,11.1966 C35.9748375,11.137725 35.9455875,11.082225 35.8953375,11.04435 C35.8447125,11.005725 35.7779625,10.9881 35.7123375,10.996725 L33.5335875,11.613975 C33.4855875,11.619225 33.4405875,11.6016 33.4135875,11.565975 C33.3865875,11.53035 33.3850875,11.48685 33.4094625,11.449725 L36.2613375,7.3626 C36.3033375,7.298475 36.3037125,7.2216 36.2620875,7.1571 C36.2200875,7.092975 36.1447125,7.05435 36.0607125,7.05435" id="Fill-1" fill="#FFFFFF"></path>
                    <path d="M35.9514,14.0473125 C35.8854,14.0094375 35.8029,14.0034375 35.730525,14.0323125 L30.6414,16.3775625 C30.55815,16.4105625 30.50415,16.4840625 30.50415,16.5646875 L30.50415,17.4526875 C30.50415,17.5231875 30.544275,17.5876875 30.611025,17.6255625 C30.649275,17.6469375 30.6924,17.6578125 30.736275,17.6578125 C30.769275,17.6578125 30.802275,17.6518125 30.8334,17.6390625 L35.92215,15.2394375 C36.004275,15.2060625 36.05715,15.1329375 36.05715,15.0530625 L36.05715,14.2194375 C36.05715,14.1496875 36.017775,14.0851875 35.9514,14.0473125" id="Fill-3" fill="#FFFFFF"></path>
                    <path d="M39.087075,9.5539125 L39.087075,5.9104125 C39.087075,5.8526625 39.13845,5.8046625 39.2037,5.8009125 L42.434325,5.6385375 L42.8367,9.5595375 L39.087075,9.5539125 Z M47.393325,9.5662875 L43.99695,9.5614125 L43.5882,5.5736625 L47.043075,5.4007875 C47.16495,5.3936625 47.2602,5.3040375 47.2602,5.1960375 L47.2602,4.4625375 C47.2602,4.4062875 47.23395,4.3519125 47.18745,4.3132875 C47.141325,4.2746625 47.0772,4.2544125 47.0142,4.2577875 L37.922325,4.8536625 C37.7997,4.8600375 37.704075,4.9500375 37.704075,5.0584125 L37.704075,15.9697875 L36.661575,16.3822875 C36.5787,16.4156625 36.5247,16.4891625 36.5247,16.5694125 L36.5247,17.4757875 C36.5247,17.5459125 36.56445,17.6104125 36.631575,17.6482875 C36.669825,17.6700375 36.71295,17.6809125 36.75645,17.6809125 C36.78945,17.6809125 36.82245,17.6749125 36.853575,17.6621625 L42.03495,15.3975375 C42.11745,15.3645375 42.170325,15.2914125 42.170325,15.2115375 L42.170325,14.3006625 C42.170325,14.2312875 42.130575,14.1667875 42.064575,14.1289125 C41.9982,14.0910375 41.9157,14.0850375 41.8437,14.1139125 L39.087075,15.4012875 L39.087075,10.5982875 L43.106325,10.6042875 L46.3227,17.3872875 C46.354575,17.4705375 46.443075,17.5267875 46.54245,17.5267875 L47.394825,17.5267875 C47.51145,17.5267875 47.61045,17.4499125 47.62545,17.3479125 L47.62545,13.7089125 C47.6337,13.6500375 47.61345,13.5911625 47.5692,13.5469125 C47.52495,13.5026625 47.461575,13.4775375 47.394825,13.4775375 L47.394075,13.4775375 L46.7517,13.4797875 C46.63395,13.4801625 46.535325,13.5585375 46.5222,13.6612875 L46.50645,15.5025375 L44.3157,10.6061625 L47.393325,10.6106625 C47.5212,10.6106625 47.62545,10.5187875 47.62545,10.4059125 L47.62545,9.7714125 C47.62545,9.6585375 47.5212,9.5662875 47.393325,9.5662875 Z" id="Fill-5" fill="#FFFFFF"></path>
                    <path d="M60.3513,6.7538625 L55.26705,6.7538625 C55.217925,6.7538625 55.17855,6.7216125 55.17855,6.6818625 L55.17855,5.5849875 C55.17855,5.5452375 55.217925,5.5129875 55.26705,5.5129875 L60.3513,5.5129875 L60.3513,6.7538625 Z M61.913925,5.5129875 L67.10355,5.5129875 C67.152675,5.5129875 67.1928,5.5452375 67.1928,5.5849875 L67.1928,6.6818625 C67.1928,6.7216125 67.152675,6.7538625 67.10355,6.7538625 L61.913925,6.7538625 L61.913925,5.5129875 Z M69.8418,9.0923625 L61.913925,9.0923625 L61.913925,7.6497375 L68.155425,7.6497375 C68.2668,7.6497375 68.357925,7.5758625 68.357925,7.4854875 L68.357925,4.8188625 C68.357925,4.7281125 68.2668,4.6542375 68.155425,4.6542375 L61.913925,4.6542375 L61.913925,4.2507375 C61.913925,4.0006125 61.81005,3.9961125 61.6413,3.9961125 L60.635175,3.9961125 C60.4668,3.9961125 60.3513,4.0058625 60.3513,4.2556125 L60.3513,4.6542375 L54.221175,4.6542375 C54.10905,4.6542375 54.0183,4.7281125 54.0183,4.8188625 L54.0183,7.4854875 C54.0183,7.5758625 54.10905,7.6497375 54.221175,7.6497375 L60.3513,7.6497375 L60.3513,9.0923625 L52.484175,9.0923625 C52.372425,9.0923625 52.2813,9.1662375 52.2813,9.2566125 L52.2813,9.9038625 C52.2813,9.9946125 52.372425,10.0681125 52.484175,10.0681125 L69.8418,10.0681125 C69.953175,10.0681125 70.0443,9.9946125 70.0443,9.9038625 L70.0443,9.2566125 C70.0443,9.1662375 69.953175,9.0923625 69.8418,9.0923625 Z" id="Fill-7" fill="#FFFFFF"></path>
                    <path d="M67.3951875,14.989575 L68.2505625,14.989575 C68.3626875,14.989575 68.4534375,14.9157 68.4534375,14.825325 L68.4534375,10.9932 C68.4534375,10.902825 68.3626875,10.82895 68.2505625,10.82895 L54.1111875,10.82895 C53.9990625,10.82895 53.9083125,10.902825 53.9083125,10.9932 L53.9083125,14.825325 C53.9083125,14.9157 53.9990625,14.989575 54.1111875,14.989575 L54.9661875,14.989575 C55.0779375,14.989575 55.1690625,14.9157 55.1690625,14.825325 L55.1690625,11.80695 C55.1690625,11.7672 55.2084375,11.734575 55.2579375,11.734575 L67.1038125,11.734575 C67.1525625,11.734575 67.1926875,11.7672 67.1926875,11.80695 L67.1926875,14.825325 C67.1926875,14.9157 67.2834375,14.989575 67.3951875,14.989575" id="Fill-9" fill="#FFFFFF"></path>
                    <path d="M69.1563,16.4017125 L62.073675,14.2510875 C62.0208,14.2357125 61.963425,14.2402125 61.9143,14.2608375 L61.9143,12.4777125 C61.9143,12.3869625 61.823175,12.3134625 61.71105,12.3134625 L60.554175,12.3134625 C60.499425,12.3134625 60.448425,12.3307125 60.4098,12.3622125 C60.37155,12.3937125 60.350925,12.4353375 60.3513,12.4803375 L60.350175,13.9848375 C60.350925,14.0140875 60.328425,14.0414625 60.294675,14.0523375 L53.162175,16.3758375 C53.084175,16.4005875 53.0343,16.4605875 53.0343,16.5284625 L53.0343,17.5049625 C53.0343,17.5597125 53.06805,17.6110875 53.124675,17.6414625 C53.158425,17.6598375 53.1978,17.6692125 53.2368,17.6692125 C53.263425,17.6692125 53.288925,17.6654625 53.313675,17.6572125 L61.65855,14.8270875 C61.662675,14.8259625 61.66605,14.8233375 61.67055,14.8218375 L61.67055,15.2605875 C61.67055,15.3310875 61.725675,15.3937125 61.807425,15.4162125 L69.01755,17.6602125 L69.0183,17.6602125 C69.039675,17.6665875 69.0618,17.6692125 69.083925,17.6692125 C69.125175,17.6692125 69.165675,17.6590875 69.200925,17.6384625 C69.25455,17.6077125 69.285675,17.5589625 69.28605,17.5057125 L69.2913,16.5573375 C69.291675,16.4875875 69.2373,16.4249625 69.1563,16.4017125" id="Fill-11" fill="#FFFFFF"></path>
                    <path d="M79.2289125,9.6604875 C79.1891625,9.5899875 79.1074125,9.5457375 79.0159125,9.5449875 L78.8002875,9.5431125 L78.8002875,8.8898625 L80.4896625,8.8898625 C80.6209125,8.8898625 80.7281625,8.7983625 80.7281625,8.6854875 L80.7281625,8.1049875 C80.7281625,7.9924875 80.6209125,7.9009875 80.4896625,7.9009875 L78.8002875,7.9006125 L78.8002875,5.3948625 L80.4060375,5.3078625 C80.5312875,5.3011125 80.6295375,5.2118625 80.6295375,5.1046125 L80.6306625,4.5121125 C80.6306625,4.4551125 80.6040375,4.4022375 80.5560375,4.3632375 C80.5080375,4.3242375 80.4435375,4.3039875 80.3790375,4.3077375 L75.2250375,4.5529875 C75.0990375,4.5589875 74.9996625,4.6486125 74.9996625,4.7566125 L74.9996625,5.3828625 C74.9996625,5.4391125 75.0274125,5.4931125 75.0754125,5.5317375 C75.1192875,5.5669875 75.1781625,5.5868625 75.2385375,5.5868625 C75.2434125,5.5868625 75.2482875,5.5868625 75.2531625,5.5864875 L77.3062875,5.4754875 L77.3062875,7.9006125 L74.9254125,7.9009875 C74.7937875,7.9009875 74.6869125,7.9924875 74.6869125,8.1049875 L74.6869125,8.6854875 C74.6869125,8.7983625 74.7937875,8.8898625 74.9254125,8.8898625 L76.8281625,8.8898625 L74.8642875,13.6167375 C74.8391625,13.6797375 74.8507875,13.7468625 74.8961625,13.8012375 C74.9415375,13.8556125 75.0124125,13.8867375 75.0900375,13.8867375 L75.8711625,13.8867375 C75.9735375,13.8867375 76.0646625,13.8308625 76.0972875,13.7476125 L77.3062875,10.6759875 L77.3062875,17.4859875 C77.3062875,17.5984875 77.4131625,17.6903625 77.5447875,17.6903625 L78.5614125,17.6903625 C78.6930375,17.6903625 78.8002875,17.5984875 78.8002875,17.4859875 L78.8002875,11.2516125 L79.5135375,12.5224875 C79.5529125,12.5929875 79.6372875,12.6383625 79.7287875,12.6383625 L80.5335375,12.6383625 C80.6160375,12.6383625 80.6914125,12.6027375 80.7352875,12.5427375 C80.7795375,12.4827375 80.7840375,12.4088625 80.7480375,12.3451125 L79.2289125,9.6604875 Z" id="Fill-13" fill="#FFFFFF"></path>
                    <path d="M91.39425,11.8125375 L89.6475,11.8125375 L89.6475,4.5900375 C89.6475,4.4771625 89.54025,4.3856625 89.409,4.3856625 L88.392375,4.3856625 C88.26075,4.3856625 88.153875,4.4771625 88.153875,4.5900375 L88.153875,11.8125375 L82.263375,11.8125375 C82.13175,11.8125375 82.024875,11.9044125 82.024875,12.0165375 L82.024875,12.6097875 C82.024875,12.7226625 82.13175,12.8141625 82.263375,12.8141625 L88.153875,12.8141625 L88.153875,17.4859125 C88.153875,17.5987875 88.26075,17.6902875 88.392375,17.6902875 L89.409,17.6902875 C89.54025,17.6902875 89.6475,17.5987875 89.6475,17.4859125 L89.6475,12.8141625 L91.39425,12.8141625 C91.525875,12.8141625 91.633125,12.7226625 91.633125,12.6097875 L91.633125,12.0165375 C91.633125,11.9044125 91.525875,11.8125375 91.39425,11.8125375" id="Fill-15" fill="#FFFFFF"></path>
                    <path d="M85.8553125,7.9303125 C85.8999375,7.9633125 85.9546875,7.9801875 86.0101875,7.9801875 C86.0439375,7.9801875 86.0780625,7.9738125 86.1103125,7.9614375 C86.1961875,7.9276875 86.2494375,7.8564375 86.2494375,7.7754375 L86.2494375,7.0711875 C86.2494375,7.0115625 86.2190625,6.9549375 86.1658125,6.9159375 L83.5419375,4.9966875 C83.4703125,4.9445625 83.3720625,4.9329375 83.2865625,4.9666875 C83.2014375,5.0004375 83.1481875,5.0713125 83.1481875,5.1523125 L83.1481875,5.8445625 C83.1481875,5.9041875 83.1781875,5.9604375 83.2310625,5.9994375 L85.8553125,7.9303125 Z" id="Fill-17" fill="#FFFFFF"></path>
                    <path d="M85.8553125,10.7287125 C85.8999375,10.7613375 85.9546875,10.7785875 86.0101875,10.7785875 C86.0439375,10.7785875 86.0780625,10.7722125 86.1103125,10.7594625 C86.1961875,10.7257125 86.2494375,10.6548375 86.2494375,10.5738375 L86.2494375,9.8695875 C86.2494375,9.8099625 86.2190625,9.7533375 86.1658125,9.7143375 L83.5419375,7.7950875 C83.4703125,7.7425875 83.3720625,7.7313375 83.2865625,7.7650875 C83.2014375,7.7988375 83.1481875,7.8697125 83.1481875,7.9503375 L83.1481875,8.6429625 C83.1481875,8.7022125 83.1781875,8.7588375 83.2310625,8.7978375 L85.8553125,10.7287125 Z" id="Fill-19" fill="#FFFFFF"></path>
                    <path d="M102.063075,7.2303 L100.551825,7.2303 L100.551825,4.50705 C100.551825,4.409925 100.456575,4.3308 100.33995,4.3308 L99.228825,4.3308 C99.111825,4.3308 99.01695,4.409925 99.01695,4.50705 L99.017325,7.2078 L96.416325,7.2303 C96.2997,7.2303 96.20445,7.309425 96.20445,7.40655 L96.20445,8.042925 C96.20445,8.14005 96.2997,8.219175 96.416325,8.219175 L99.017325,8.196675 L99.017325,11.062425 L96.2877,12.33105 C96.228075,12.3633 96.19245,12.41805 96.192075,12.4773 L96.186825,13.194675 C96.18645,13.259925 96.22845,13.319925 96.29745,13.35105 C96.328575,13.3653 96.363825,13.372425 96.398325,13.372425 C96.438825,13.372425 96.479325,13.362675 96.51495,13.34355 L99.017325,12.1938 L99.017325,16.317675 L97.6302,15.160425 C97.590825,15.125175 97.53495,15.104925 97.4772,15.10455 L96.510825,15.098925 L96.509325,15.098925 C96.4242,15.098925 96.34995,15.139425 96.315825,15.204675 C96.28095,15.269925 96.296325,15.343425 96.354825,15.39555 L98.967825,17.609925 C99.060825,17.7033 99.196575,17.69055 99.23595,17.69055 L100.339575,17.69055 C100.456575,17.69055 100.55145,17.611425 100.55145,17.513925 L100.551825,11.6163 L102.12045,10.886925 C102.180075,10.8543 102.2157,10.799175 102.2157,10.73955 L102.2157,10.034925 C102.2157,9.968925 102.174075,9.9108 102.104325,9.879675 C102.03495,9.848175 101.954325,9.851175 101.887575,9.887175 L100.551825,10.4853 L100.551825,8.219175 L102.063075,8.219175 C102.1797,8.219175 102.274575,8.14005 102.274575,8.042925 L102.274575,7.40655 C102.274575,7.309425 102.1797,7.2303 102.063075,7.2303" id="Fill-21" fill="#FFFFFF"></path>
                    <path d="M113.710425,16.7362125 L109.46055,14.2840875 L113.2113,12.2485875 C113.488425,12.0764625 113.488425,12.0764625 113.488425,11.6767125 L113.488425,10.1823375 L113.488425,9.8065875 C113.488425,9.4679625 113.2323,9.1934625 112.916175,9.1934625 L109.08255,9.1934625 C109.030425,9.1934625 108.987675,9.1480875 108.987675,9.0918375 L108.9903,7.0852125 C108.990675,7.0289625 109.03305,6.9835875 109.08555,6.9835875 L113.4603,6.9835875 C113.576925,6.9835875 113.6718,6.9044625 113.67105,6.8155875 L113.67105,6.1570875 C113.67105,6.0595875 113.576175,5.9804625 113.4558,5.9804625 L113.455425,5.9804625 L111.167925,5.9819625 L109.08255,5.9819625 C109.030425,5.9819625 108.987675,5.9365875 108.987675,5.8803375 L108.98805,4.5070875 C108.98805,4.4099625 108.893175,4.3308375 108.77655,4.3308375 L107.66505,4.3308375 C107.548425,4.3308375 107.453175,4.4099625 107.453175,4.5070875 L107.453175,5.8807125 C107.453175,5.9365875 107.4108,5.9819625 107.35905,5.9819625 L103.355925,5.9819625 C103.238925,5.9819625 103.143675,6.0610875 103.143675,6.1585875 L103.143675,6.8073375 C103.143675,6.9044625 103.238925,6.9835875 103.355925,6.9835875 L107.35905,6.9835875 C107.411175,6.9835875 107.453175,7.0293375 107.453175,7.0855875 L107.453175,9.0922125 C107.453175,9.1480875 107.4108,9.1934625 107.35905,9.1934625 L103.661925,9.1934625 C103.514925,9.1934625 103.395675,9.3213375 103.395675,9.4788375 L103.395675,9.8969625 C103.395675,10.0548375 103.514925,10.1823375 103.661925,10.1823375 L111.658425,10.1823375 C111.88755,10.1823375 112.072425,10.3810875 112.072425,10.6255875 L112.072425,11.1202125 C112.072425,11.3294625 111.9543,11.5105875 111.823425,11.5957125 L108.194175,13.5535875 L103.671675,10.9450875 C103.544925,10.8817125 103.3953,10.9743375 103.395675,11.1164625 L103.397175,12.0723375 C103.397175,12.1454625 103.4388,12.2118375 103.504425,12.2440875 L106.96755,14.2154625 L103.415175,16.1313375 C103.322175,16.1725875 103.2603,16.2614625 103.2573,16.3582125 L103.2573,17.2499625 C103.251675,17.4254625 103.434675,17.5383375 103.60305,17.4629625 L108.2463,14.9433375 L113.525175,17.9485875 C113.6508,18.0100875 113.797425,17.9200875 113.80005,17.7802125 L113.81655,16.9105875 C113.81805,16.8370875 113.7768,16.7688375 113.710425,16.7362125" id="Fill-23" fill="#FFFFFF"></path>
                    <g id="Group-27">
                        <mask id="mask-2" fill="white">
                            <use xlink:href="#path-1"></use>
                        </mask>
                        <g id="Clip-26"></g>
                        <path d="M19.186425,8.4183 L10.5003,13.295175 C10.443675,13.329675 10.372425,13.329675 10.3158,13.2948 L3.053175,9.42705 C2.926425,9.3498 2.949675,9.1593 3.09105,9.113925 L10.2843,6.831675 C10.36755,6.80505 10.4568,6.8043 10.54005,6.829425 L16.17405,8.707425 C16.339425,8.756925 16.51305,8.663175 16.562175,8.4978 L16.695675,8.05155 C16.7448,7.886925 16.65105,7.712925 16.48605,7.6638 L11.276925,5.91255 C11.0928,5.857425 10.9668,5.687925 10.9668,5.495925 L10.9668,1.533675 C10.9668,1.413675 11.08305,1.328175 11.197425,1.364175 L19.48455,3.968925 C19.604925,4.0068 19.6818,4.1238 19.669425,4.24905 L19.271175,8.28405 C19.26555,8.33955 19.23405,8.389425 19.186425,8.4183 Z M10.9668,20.41605 L10.9668,14.366925 C10.9668,14.32905 10.985925,14.293425 11.018175,14.273175 L18.278925,10.2228 C18.423675,10.130175 18.602175,10.2768 18.539925,10.43655 L16.0353,16.898175 C16.015425,16.9488 15.981675,16.992675 15.93705,17.024175 L11.06055,20.4648 C11.021175,20.49255 10.9668,20.464425 10.9668,20.41605 Z M9.877425,1.524675 L9.877425,5.513925 C9.877425,5.700675 9.7578,5.8668 9.5808,5.92605 L1.898925,8.499675 C1.79205,8.535675 1.6788,8.46405 1.66605,8.351925 L1.187175,4.244925 C1.17255,4.121175 1.2483,4.00455 1.3668,3.96705 L9.646425,1.35555 C9.7608,1.319175 9.877425,1.404675 9.877425,1.524675 Z M4.9503,16.963425 L2.309175,10.3458 C2.255925,10.2123 2.405175,10.0893 2.5263,10.166925 L9.8133,14.283675 C9.853425,14.30955 9.877425,14.3538 9.877425,14.401425 L9.877425,20.42805 C9.877425,20.4768 9.822675,20.504925 9.782925,20.4768 L5.0568,17.099175 C5.0088,17.06505 4.97205,17.0178 4.9503,16.963425 Z M10.568925,0.024675 C10.462425,-0.008325 10.348425,-0.008325 10.241925,0.025425 L0.181425,3.19905 C0.0633,3.236175 -0.012075,3.35205 0.001425,3.475425 L0.6063,8.908425 C0.61005,8.9238 0.6138,8.9388 0.61755,8.954175 L4.065675,17.684925 C4.0818,17.725425 4.1088,17.760675 4.144425,17.7858 L10.06005,22.01355 C10.266675,22.1613 10.544175,22.16205 10.75155,22.0158 L16.85205,17.711175 C16.8843,17.688675 16.90905,17.6568 16.9233,17.620425 L20.294925,8.95455 C20.300925,8.93955 20.304675,8.9238 20.306175,8.907675 L20.8428,3.476175 C20.8548,3.350925 20.777925,3.2343 20.65755,3.196425 L10.568925,0.024675 Z" id="Fill-25" fill="#FFFFFF" mask="url(#mask-2)"></path>
                    </g>
                </g>
            </g>
        </g>
    </g>
</svg>