<svg xmlns="http://www.w3.org/2000/svg" xmlns:xlink="http://www.w3.org/1999/xlink" width="114" height="23" viewBox="0 0 114 23">
    <defs>
        <path id="a" d="M0 0h20.844v22.125H0z"/>
    </defs>
    <g fill="none" fill-rule="evenodd">
        <path fill="#4779BD" d="M36.06 7.054h-1.146a.24.24 0 0 0-.2.102l-1.018 1.467-1.6.01a.135.135 0 0 1-.11-.056.097.097 0 0 1 .001-.112l1.783-4.014a.182.182 0 0 0 .004-.21.246.246 0 0 0-.208-.102l-1.019-.022a.239.239 0 0 0-.191.097l-2.182 5.271a.184.184 0 0 0-.002.212c.042.063.117.1.2.1h.012l2.602-.049-2.452 3.459a.185.185 0 0 0 .007.218.24.24 0 0 0 .225.089l5.024-1.255c.115-.014.202-.103.2-.206l-.014-.856a.196.196 0 0 0-.08-.153.25.25 0 0 0-.184-.047l-2.178.617a.13.13 0 0 1-.12-.048.097.097 0 0 1-.005-.116l2.852-4.087a.184.184 0 0 0 .001-.206.238.238 0 0 0-.201-.103M35.951 14.047a.256.256 0 0 0-.22-.015l-5.09 2.346a.206.206 0 0 0-.137.187v.888a.2.2 0 0 0 .107.173.256.256 0 0 0 .222.013l5.09-2.4a.206.206 0 0 0 .134-.186v-.834a.2.2 0 0 0-.106-.172"/>
        <path fill="#4779BD" fill-rule="nonzero" d="M39.087 9.554V5.91c0-.057.051-.105.117-.11l3.23-.161.403 3.92-3.75-.005zm8.306.012l-3.396-.005-.409-3.987 3.455-.173c.122-.007.217-.097.217-.205v-.733a.195.195 0 0 0-.073-.15.253.253 0 0 0-.173-.055l-9.092.596c-.122.006-.218.096-.218.204V15.97l-1.042.412a.207.207 0 0 0-.137.187v.907a.2.2 0 0 0 .107.172.252.252 0 0 0 .222.014l5.181-2.264a.205.205 0 0 0 .135-.186V14.3a.2.2 0 0 0-.105-.172.256.256 0 0 0-.221-.015L39.087 15.4v-4.803l4.02.006 3.216 6.783c.032.084.12.14.22.14h.852c.116 0 .215-.077.23-.18V13.71a.19.19 0 0 0-.056-.162.247.247 0 0 0-.174-.07l-.643.003c-.118 0-.217.079-.23.181l-.016 1.842-2.19-4.897 3.077.005c.128 0 .232-.092.232-.205V9.77c0-.112-.104-.205-.232-.205zM60.351 6.754h-5.084c-.05 0-.088-.032-.088-.072V5.585c0-.04.039-.072.088-.072h5.084v1.24zm1.563-1.241h5.19c.049 0 .089.032.089.072v1.097c0 .04-.04.072-.09.072h-5.19V5.513zm7.928 3.58h-7.928V7.65h6.241c.112 0 .203-.074.203-.165V4.82c0-.09-.091-.165-.203-.165h-6.241v-.403c0-.25-.104-.255-.273-.255h-1.006c-.168 0-.284.01-.284.26v.398h-6.13c-.112 0-.203.074-.203.165v2.666c0 .09.091.165.203.165h6.13v1.442h-7.867c-.112 0-.203.074-.203.165v.647c0 .09.091.164.203.164h17.358c.111 0 .202-.073.202-.164v-.647c0-.09-.09-.165-.202-.165z"/>
        <path fill="#4779BD" d="M67.395 14.99h.856c.112 0 .202-.074.202-.165v-3.832c0-.09-.09-.164-.202-.164H54.11c-.112 0-.203.074-.203.164v3.832c0 .09.091.165.203.165h.855c.112 0 .203-.074.203-.165v-3.018c0-.04.04-.072.089-.072h11.846c.049 0 .089.032.089.072v3.018c0 .09.09.165.202.165"/>
        <path fill="#4779BD" d="M69.156 16.402l-7.082-2.15a.242.242 0 0 0-.16.009v-1.783c0-.091-.09-.165-.203-.165h-1.157a.228.228 0 0 0-.144.05.15.15 0 0 0-.059.117v1.505c0 .03-.023.056-.056.067l-7.133 2.324c-.078.025-.128.085-.128.152v.977c0 .055.034.106.09.136a.236.236 0 0 0 .19.016l8.345-2.83.012-.005v.439c0 .07.055.133.136.155l7.21 2.244h.001a.231.231 0 0 0 .183-.022c.054-.03.085-.079.085-.132l.005-.949c0-.07-.054-.132-.135-.155M79.229 9.66a.243.243 0 0 0-.213-.115l-.216-.002V8.89h1.69c.13 0 .238-.092.238-.205v-.58c0-.113-.107-.204-.238-.204H78.8V5.395l1.606-.087c.125-.007.224-.096.224-.203v-.593a.19.19 0 0 0-.074-.149.26.26 0 0 0-.177-.055l-5.154.245c-.126.006-.225.096-.225.204v.626c0 .056.027.11.075.149a.263.263 0 0 0 .164.055h.014l2.053-.112v2.426h-2.38c-.132 0-.24.091-.24.204v.58c0 .113.108.205.24.205h1.902l-1.964 4.727a.178.178 0 0 0 .032.184.25.25 0 0 0 .194.086h.781c.103 0 .194-.056.226-.14l1.21-3.071v6.81c0 .112.106.204.238.204h1.016c.132 0 .24-.092.24-.204v-6.234l.713 1.27c.039.071.123.116.215.116h.805a.248.248 0 0 0 .201-.095.178.178 0 0 0 .013-.198l-1.52-2.685zM91.394 11.813h-1.747V4.59c0-.113-.107-.204-.238-.204h-1.017c-.131 0-.238.091-.238.204v7.223h-5.89c-.132 0-.24.091-.24.204v.593c0 .113.108.204.24.204h5.89v4.672c0 .113.107.204.238.204h1.017c.131 0 .238-.091.238-.204v-4.672h1.747c.132 0 .24-.091.24-.204v-.593c0-.113-.108-.204-.24-.204"/>
        <path fill="#4779BD" d="M85.855 7.93c.045.033.1.05.155.05a.28.28 0 0 0 .1-.019c.086-.033.14-.105.14-.186v-.704c0-.06-.03-.116-.084-.155l-2.624-1.92a.27.27 0 0 0-.255-.03c-.086.034-.139.105-.139.186v.693c0 .06.03.115.083.154l2.624 1.931zM85.855 10.729a.263.263 0 0 0 .255.03c.086-.033.14-.104.14-.185V9.87c0-.06-.03-.117-.084-.156l-2.624-1.919a.269.269 0 0 0-.255-.03c-.086.034-.139.105-.139.185v.693c0 .06.03.116.083.155l2.624 1.93zM102.063 7.23h-1.511V4.507c0-.097-.095-.176-.212-.176h-1.111c-.117 0-.212.079-.212.176v2.7l-2.6.023c-.117 0-.213.08-.213.177v.636c0 .097.096.176.212.176l2.601-.022v2.865l-2.73 1.269a.17.17 0 0 0-.095.146l-.005.718c0 .065.041.125.11.156a.245.245 0 0 0 .218-.007l2.502-1.15v4.124L97.63 15.16a.234.234 0 0 0-.153-.055l-.966-.006h-.002c-.085 0-.159.04-.193.106-.035.065-.02.138.039.19l2.613 2.215c.093.093.229.08.268.08h1.104c.117 0 .211-.079.211-.176v-5.898l1.57-.73a.17.17 0 0 0 .095-.146v-.705c0-.066-.042-.124-.112-.155a.245.245 0 0 0-.216.007l-1.336.598V8.22h1.511c.117 0 .212-.079.212-.176v-.636c0-.098-.095-.177-.212-.177M113.71 16.736l-4.25-2.452 3.751-2.035c.277-.173.277-.173.277-.572v-1.87c0-.339-.256-.614-.572-.614h-3.833c-.053 0-.095-.045-.095-.101l.002-2.007c0-.056.043-.101.096-.101h4.374c.117 0 .212-.08.211-.168v-.659c0-.097-.095-.177-.215-.177l-2.288.002h-2.085c-.053 0-.095-.045-.095-.102V4.507c0-.097-.095-.176-.211-.176h-1.112c-.117 0-.212.079-.212.176v1.374c0 .056-.042.101-.094.101h-4.003c-.117 0-.212.08-.212.177v.648c0 .097.095.177.212.177h4.003c.052 0 .094.045.094.102v2.006c0 .056-.042.101-.094.101h-3.697c-.147 0-.266.128-.266.286v.418c0 .158.119.285.266.285h7.996c.23 0 .414.2.414.444v.494c0 .21-.118.39-.249.476l-3.629 1.958-4.522-2.609a.19.19 0 0 0-.276.171l.001.956c0 .073.042.14.107.172l3.464 1.971-3.553 1.916a.261.261 0 0 0-.158.227v.892c-.005.175.178.288.346.213l4.643-2.52 5.28 3.006a.191.191 0 0 0 .274-.169l.017-.87a.19.19 0 0 0-.107-.174"/>
        <g>
            <mask id="b" fill="#fff">
                <use xlink:href="#a"/>
            </mask>
            <path fill="#4779BD" fill-rule="nonzero" d="M19.186 8.418L10.5 13.295a.177.177 0 0 1-.184 0L3.053 9.427a.173.173 0 0 1 .038-.313l7.193-2.282a.431.431 0 0 1 .256-.003l5.634 1.878a.311.311 0 0 0 .388-.21l.134-.445a.312.312 0 0 0-.21-.388l-5.21-1.751a.435.435 0 0 1-.31-.417V1.534c0-.12.117-.206.231-.17l8.288 2.605c.12.038.197.155.184.28l-.398 4.035a.178.178 0 0 1-.085.134zm-8.22 11.998v-6.05a.11.11 0 0 1 .052-.093l7.26-4.05a.177.177 0 0 1 .262.214l-2.505 6.461a.278.278 0 0 1-.098.126l-4.876 3.44a.06.06 0 0 1-.094-.048zM9.878 1.525v3.989c0 .187-.12.353-.296.412L1.899 8.5a.177.177 0 0 1-.233-.148l-.479-4.107a.26.26 0 0 1 .18-.278l8.28-2.611a.177.177 0 0 1 .23.169zM4.95 16.963l-2.64-6.617a.148.148 0 0 1 .216-.18l7.287 4.118a.14.14 0 0 1 .064.117v6.027a.06.06 0 0 1-.094.049l-4.726-3.378a.306.306 0 0 1-.107-.136zM10.57.025a.546.546 0 0 0-.327 0L.182 3.2a.26.26 0 0 0-.18.276l.604 5.433.012.046 3.448 8.73c.016.041.043.077.078.102l5.916 4.228a.597.597 0 0 0 .692.002l6.1-4.305a.2.2 0 0 0 .071-.09l3.372-8.666a.168.168 0 0 0 .011-.047l.537-5.432a.266.266 0 0 0-.185-.28L10.568.025z" mask="url(#b)"/>
        </g>
    </g>
</svg>
